<?xml version="1.0" encoding="utf-8"?>
<!-- Generator: Adobe Illustrator 23.1.1, SVG Export Plug-In . SVG Version: 6.00 Build 0)  -->
<svg version="1.1" id="Network_Sphere" xmlns="http://www.w3.org/2000/svg" xmlns:xlink="http://www.w3.org/1999/xlink" x="0px"
	 y="0px" viewBox="0 0 150 150.7" style="enable-background:new 0 0 150 150.7;" xml:space="preserve">
<style type="text/css">
	.st0{enable-background:new    ;}
	.st1{opacity:0.4;fill:#998CD1;}
	.st2{fill:#685C8B;}
</style>
<g>
	<g class="st0">
		<g>
			<path class="st1" d="M146.2,53.7c0.1,0.2,0.1,0.5,0.2,0.7l0.5,1.9C146.8,55.9,146.8,55.9,146.2,53.7L146.2,53.7z"/>
			<path class="st1" d="M147.7,59.8c0-0.1-0.1-0.2-0.1-0.4l0.1,0.6l0.1,0.5L147.7,59.8C147.7,59.8,147.7,59.8,147.7,59.8L147.7,59.8
				z"/>
			<path class="st1" d="M147.6,91.7c0,0.2-0.1,0.4-0.1,0.6c-0.6,2.1-1.6,4.9-2.4,6.9c0-0.1,0-0.2,0.1-0.3
				C145.8,96.7,147,93.9,147.6,91.7L147.6,91.7z"/>
			<path class="st1" d="M143.9,102.3c0.1-0.1,0.1-0.2,0.2-0.4c-0.3,1.1-0.7,2.6-1.1,3.7l-0.2,0.5C143.1,105,143.7,103.5,143.9,102.3
				C143.9,102.3,143.9,102.3,143.9,102.3L143.9,102.3z"/>
			<path class="st1" d="M80.7,149.8c-0.2,0-0.3,0-0.5,0c-0.2,0-1.4,0-4.5,0c0.1,0,0.1,0,2.9,0C80.3,149.8,80.6,149.8,80.7,149.8
				L80.7,149.8z"/>
			<path class="st1" d="M19.2,25.3c0.3-0.1,0.5-0.2,2.1-0.3c-0.1,0.1-0.1,0.1-0.2,0.2c0,0.1-0.1,0.1-0.1,0.2c-0.3,0.1-0.7,0.1-1,0.1
				c0,0-0.9,0.1-1.1,0.2C19,25.6,19.1,25.4,19.2,25.3L19.2,25.3z"/>
			<path class="st1" d="M96.4,3.9c-0.1,0-0.2,0-0.2-0.1c1.5,0.5,3.5,1.1,5,1.7c0.2,0.1,0.5,0.2,0.7,0.3C100.3,5.2,98.1,4.4,96.4,3.9
				C96.4,3.9,96.4,3.9,96.4,3.9L96.4,3.9z"/>
			<path class="st1" d="M143.4,103.2c0-0.1,0.1-0.1,0.1-0.2c-2.3,6.2-2.4,6.5-5.4,11.6c-0.2,0.2-0.3,0.5-0.5,0.7
				C141.2,109.4,141.3,109.2,143.4,103.2C143.4,103.3,143.4,103.2,143.4,103.2L143.4,103.2z"/>
			<path class="st1" d="M47,5.9c1-0.3,1-0.3,2.4-0.7c-0.1,0.1-0.3,0.1-0.4,0.2c-0.3,0.1-0.7,0.2-1,0.2c-0.4,0.1-1,0.3-1.4,0.4
				C46.7,6.1,46.9,6,47,5.9L47,5.9z"/>
			<path class="st1" d="M34.3,12.5c5.1-3,6.7-3.9,13.7-6.6c-2.6,1.1-5.2,2.1-7.7,3.3c-2,1-4.5,2.5-6.4,3.7
				C34,12.7,34.1,12.6,34.3,12.5L34.3,12.5z"/>
			<path class="st1" d="M72,0.7c0.1,0,0.2,0,0.3,0c-6.5,0.4-11.7,0.7-20.5,3.8c-0.1,0-0.2,0.1-0.2,0.1C57.2,2.7,61.7,1.2,72,0.7
				C72,0.7,72,0.7,72,0.7L72,0.7z"/>
			<path class="st1" d="M59.8,4.5c-0.1,0-0.2,0.1-0.3,0.1c-3.2,0.3-6.4,0.3-9.6,0.6C50.3,5.1,50.8,5,59.8,4.5L59.8,4.5z"/>
			<path class="st1" d="M66.1,149.6l0.9,0.1c0,0,0,0,0.1,0C66.8,149.6,66.5,149.6,66.1,149.6L66.1,149.6z"/>
			<path class="st1" d="M18.9,125c0.2,0.2,0.3,0.4,0.5,0.5C19.2,125.4,19.1,125.2,18.9,125L18.9,125z"/>
			<path class="st1" d="M41.5,142.3c-1.2-0.7-1.2-0.7-1.6-1.4c-0.2-0.2,0-0.7,0.1-1c0.1,0.1,0.3,0.2,0.4,0.2c-0.1,0.3-0.3,0.7-0.1,1
				c0.3,0.5,0.5,0.8,1.6,1.4C41.8,142.4,41.6,142.4,41.5,142.3L41.5,142.3z"/>
			<path class="st1" d="M3.2,53.6C5.6,46.9,8.6,38.4,20,26.8c-0.6,1.5-2.5,2.8-3.6,4C13,34.4,6.7,42.3,3,54.2l0-0.1
				C3.1,54,3.1,53.8,3.2,53.6L3.2,53.6z"/>
			<path class="st1" d="M2.3,56.9c0-0.1,0.1-0.3,0.1-0.4c0.6,1,2.7,1.8,12.3,3.1c0,0.2-0.1,0.3-0.1,0.5C6.1,58.9,2.5,58,2.3,56.9
				C2.3,56.9,2.3,56.9,2.3,56.9L2.3,56.9z"/>
			<path class="st1" d="M18.5,124.5c-0.1-0.1-0.1-0.2-0.2-0.2c5.8,5.8,9.7,8.9,20.1,14.5c0.1,0,0.1,0.1,0.2,0.2
				C28.2,133.3,24.3,130.3,18.5,124.5C18.5,124.5,18.5,124.5,18.5,124.5L18.5,124.5z"/>
			<path class="st1" d="M17.3,123.1c-0.1-0.1-0.2-0.2-0.3-0.3c0.8,0.1,2.1,0.2,16.7,0.5c0.1,0.1,0.1,0.2,0.2,0.3
				C26.1,123.6,17.9,123.2,17.3,123.1C17.3,123.1,17.3,123.1,17.3,123.1L17.3,123.1z"/>
			<path class="st1" d="M21,96.4c0,0.1,0.1,0.2,0.2,0.3c-6.8,8.4-11.1,15.1-4.8,25.3C7.9,111.7,17.4,100.6,21,96.4L21,96.4z"/>
			<path class="st1" d="M1,87.6c-0.8-9.5,2.8-16.4,13.5-26.3c0,0.1,0,0.2,0,0.3C4.8,71.1,0,77.8,1.1,88.2C1,88,1,87.8,1,87.6L1,87.6
				z"/>
			<path class="st1" d="M2.2,93.6c0.4,0.2,1.2,0.6,18.3,1.3c0,0.2,0,0.3,0.1,0.4c-4.6-0.1-18-0.6-18.3-1.2
				C2.3,93.9,2.3,93.8,2.2,93.6L2.2,93.6z"/>
			<path class="st1" d="M128.4,113.1c0.1-0.2,0.2-0.3,0.2-0.3c4.5,3.8,6.2,6.5,3.2,10.7c-0.1,0.1-0.2,0.3-0.3,0.4
				C133.9,120.4,134,117.8,128.4,113.1C128.4,113.1,128.4,113.1,128.4,113.1L128.4,113.1z"/>
			<path class="st1" d="M70.2,149.9c-0.2,0-0.3,0-0.5,0c0.3,0,0.6,0,1.8,0c0.1,0,0.2,0,0.4,0C70.7,149.9,70.4,149.9,70.2,149.9
				C70.2,149.9,70.2,149.9,70.2,149.9L70.2,149.9z"/>
			<path class="st1" d="M41.6,140.8c0.1,0,0.2,0.1,0.3,0.1c3.3,1.7,6.2,4,9.8,5.2c6.7,2.3,9.2,2.7,16.2,3.6
				C52.6,148.3,44.9,143.1,41.6,140.8L41.6,140.8z"/>
			<path class="st1" d="M86.7,147.8c-0.7,0.3-9.7,1.9-10.8,2.1c0.1,0,0.1,0,2.3-0.4C82.3,148.6,84.7,148.2,86.7,147.8L86.7,147.8z"
				/>
			<path class="st1" d="M20.6,27c0.1,0,0.2-0.1,0.2-0.2c-3.1,5.7-7.7,14.4-4.9,30.7c-0.1,0.1-0.2,0.2-0.3,0.2
				C14.6,50.5,13.1,39.5,20.6,27C20.5,27,20.6,27,20.6,27L20.6,27z"/>
			<path class="st1" d="M47.2,6.3L47.2,6.3C40.5,9.5,33,13.1,23.7,23.1C28.2,18.3,34.5,11.9,47.2,6.3C47.2,6.3,47.2,6.3,47.2,6.3
				L47.2,6.3z"/>
			<path class="st1" d="M48.2,5.9c0.1,0,0.2-0.1,0.3-0.1c-4,2.2-11.5,6.3-9.8,15.7c-0.1,0.1-0.2,0.1-0.3,0.3
				C37.9,18,37.2,11.6,48.2,5.9C48.2,6,48.2,5.9,48.2,5.9L48.2,5.9z"/>
			<path class="st1" d="M37.4,22.9c-0.1,0.1-0.1,0.2-0.2,0.3c-8.2,0.8-10.8,1.2-14.7,1.9C22.7,24.9,23.1,24.4,37.4,22.9L37.4,22.9z"
				/>
			<path class="st1" d="M34.9,124.8c0.1,0.1,0.2,0.2,0.3,0.3c-0.4,4.9-0.3,8.5,4.3,13.9C39.5,138.9,33.8,135,34.9,124.8L34.9,124.8z
				"/>
			<path class="st1" d="M42.6,141c0,0-0.1-0.1-0.1-0.1c8,3.8,16,7.3,27.5,8.9c0,0,0.1,0,0.2,0C63.4,148.8,55.7,147.3,42.6,141
				C42.6,141,42.6,141,42.6,141L42.6,141z"/>
			<path class="st1" d="M42.1,140.5c-0.1-0.1-0.2-0.1-0.3-0.2c5.8,2.3,12,4.6,23.6,7.7c0,0,0.1,0,0.1,0.1
				C53.6,145,45.8,142,42.1,140.5C42.1,140.6,42.1,140.6,42.1,140.5L42.1,140.5z"/>
			<path class="st1" d="M16.1,62.9c0.1,0,0.2-0.1,0.3-0.1c0.4,7.3,0.8,16.3,5.3,29.6c-0.1,0-0.2,0.1-0.3,0.1
				C19.1,85.3,16.3,76.2,16.1,62.9C16,62.9,16,62.9,16.1,62.9L16.1,62.9z"/>
			<path class="st1" d="M37,24.8c0,0,0.1,0.1,0.2,0.1C28.9,35,23.3,43.2,17.3,57.4c0,0-0.1-0.1-0.1-0.1C21.6,46.4,26.3,37.6,37,24.8
				L37,24.8z"/>
			<path class="st1" d="M38.4,24.7c0.1,0,0.2-0.1,0.3-0.2C38.1,34.9,39.9,45,51.3,66c-0.1,0.1-0.3,0.2-0.4,0.2
				C42,49.6,37.1,37.5,38.4,24.7C38.4,24.7,38.4,24.7,38.4,24.7L38.4,24.7z"/>
			<path class="st1" d="M17.7,60.8c0-0.1,0.1-0.2,0.1-0.4c5,1.4,12.5,3.6,32,7.5c0,0.1,0,0.3-0.1,0.4C37.2,66,24.6,62.9,17.7,60.8
				C17.7,60.8,17.7,60.8,17.7,60.8L17.7,60.8z"/>
			<path class="st1" d="M58.7,5.5C53.5,8.8,48.2,12.2,40.6,21c-0.1,0-0.1,0-0.2-0.1C44.7,16.3,50,10.4,58.7,5.5L58.7,5.5z"/>
			<path class="st1" d="M67.3,16.2c0,0.1,0,0.2,0,0.3c-8.8,1.9-17.8,3.9-26.8,6.1c0-0.1,0.1-0.2,0.1-0.2
				C44.6,21.3,48.6,20.3,67.3,16.2L67.3,16.2z"/>
			<path class="st1" d="M50.1,70.1c0,0.1,0.1,0.2,0.2,0.3c-12.1,9.4-18.1,14.2-26.3,23.4c-0.1-0.1-0.1-0.2-0.2-0.3
				C27.4,89.2,32.4,83.3,50.1,70.1L50.1,70.1z"/>
			<path class="st1" d="M37,125.5c0,0,0.1-0.1,0.2-0.1c4.6,5,15.3,16.8,28,22.3C61.6,146.1,50.5,140.9,37,125.5
				C37,125.5,37,125.5,37,125.5L37,125.5z"/>
			<path class="st1" d="M23.2,98c0.1,0,0.2,0,0.3,0c2.6,7.6,4.5,13.1,10.7,23.4c-0.1,0-0.2,0-0.2,0C29.5,114,26.9,109.3,23.2,98
				C23.1,98,23.2,98,23.2,98L23.2,98z"/>
			<path class="st1" d="M24.5,95.6c0-0.1,0-0.2-0.1-0.4c7.7,0.9,14.4,1.6,31,3c0,0.1,0,0.2,0,0.3C42.6,97.7,26.3,95.9,24.5,95.6
				C24.5,95.6,24.5,95.6,24.5,95.6L24.5,95.6z"/>
			<path class="st1" d="M37.4,124.3c0-0.1,0-0.1-0.1-0.3c5.9,2.2,10.1,3.7,22.6,7.8c0,0.1,0,0.2,0,0.3
				C47.5,128,43.5,126.6,37.4,124.3C37.4,124.3,37.4,124.3,37.4,124.3L37.4,124.3z"/>
			<path class="st1" d="M58,101.4c0.1,0,0.2,0,0.3,0c0.9,14.4,1.2,20.3,3.2,29.4c-0.1,0-0.2,0-0.3,0C60.1,125.6,58.4,117.8,58,101.4
				L58,101.4z"/>
			<path class="st1" d="M55.9,100.1c0.1,0.2,0.2,0.2,0.3,0.4c-8.2,6.8-15.9,13.6-20.1,21.8c-0.1-0.1-0.2-0.2-0.3-0.3
				C38.3,117.6,41.3,112.1,55.9,100.1L55.9,100.1z"/>
			<path class="st1" d="M60.1,5.1c0.1,0,0.2-0.1,0.3-0.1c-0.3,2.7,0.7,4.8,7.6,9.9c-0.1,0.1-0.1,0.1-0.2,0.2
				C61.4,10.4,59.7,8.1,60.1,5.1C60.1,5.1,60.1,5.1,60.1,5.1L60.1,5.1z"/>
			<path class="st1" d="M74.4,0.6c0.1,0,0.2,0,0.3,0C74.6,0.6,74.5,0.6,74.4,0.6C74.4,0.6,74.4,0.6,74.4,0.6L74.4,0.6z"/>
			<path class="st1" d="M73.4,0.6c0.1,0,0.3,0,0.4,0C64.7,0.9,60.1,2,60.5,4.2c-0.1,0-0.2,0.1-0.3,0.1C60,2.1,64.4,0.9,73.4,0.6
				C73.4,0.6,73.4,0.6,73.4,0.6L73.4,0.6z"/>
			<path class="st1" d="M74.7,0.6C74.7,0.7,74.8,0.7,74.7,0.6c-0.3,0.2-0.5,0.3-2,0.7c-3.7,1-7.4,1.9-11.1,2.9
				c0.2-0.1,0.2-0.1,2.7-0.8c0.3-0.1,1.4-0.4,6.1-1.6C74.1,0.9,74.4,0.8,74.7,0.6C74.8,0.7,74.7,0.6,74.7,0.6L74.7,0.6z"/>
			<path class="st1" d="M75.4,149.9c-0.1,0-0.1,0-0.9,0c-1.8,0-2.3,0.1-2.4,0.1c-0.1,0-0.2,0-0.3,0
				C72.7,149.9,73.6,149.9,75.4,149.9L75.4,149.9z"/>
			<path class="st1" d="M67,148.6c0.4,0.1,0.8,0.5,1.3,0.6c0.8,0.2,2,0.5,2.8,0.6C68.7,149.6,67.7,149.1,67,148.6L67,148.6z"/>
			<path class="st1" d="M114.5,12.2c0.1,0.1,0.3,0.2,0.4,0.3c0.4,0.3,0.9,0.7,1.1,1.1c0.1,0.2,0.1,0.7,0,0.9
				c-0.1-0.1-0.3-0.2-0.4-0.3c0-0.3,0-0.8-0.1-1.1C115.3,12.7,114.9,12.4,114.5,12.2L114.5,12.2z"/>
			<path class="st1" d="M61.4,134.1c0.1,0.1,0.2,0.1,0.3,0.1c-0.4,4-1,10,4.2,13.6C65.8,147.8,59.7,145.3,61.4,134.1L61.4,134.1z"/>
			<path class="st1" d="M67.6,148.5c-0.1,0-0.1-0.1-0.2-0.1c5.2,0.8,6.9,1.1,8.1,1.4c-0.1,0.1-0.3,0-0.5-0.1
				C73.7,149.5,72.4,149.3,67.6,148.5C67.6,148.5,67.6,148.5,67.6,148.5L67.6,148.5z"/>
			<path class="st1" d="M74.9,0.7c0.7,0.5,1.2,0.8,0.1,4c-0.8,2.4-3.1,6.5-4.8,9.8c-0.1,0-0.1-0.1-0.2-0.1
				C74.8,5.3,76.5,1.9,74.9,0.7L74.9,0.7z"/>
			<path class="st1" d="M82.1,145.5C82.1,145.6,82.2,145.6,82.1,145.5c-2.4,2-3.9,3.1-6,4.1C78.1,148.6,79,148,82.1,145.5
				L82.1,145.5z"/>
			<path class="st1" d="M63.2,134.1c0,0,0.1-0.1,0.2-0.1c10.1,10.2,13.2,13.7,12.5,15.6c0,0-0.1,0-0.1,0
				C76.2,147.7,74.1,145.1,63.2,134.1C63.2,134.2,63.2,134.2,63.2,134.1L63.2,134.1z"/>
			<path class="st1" d="M80.4,122.9c0,0.1,0,0.1,0.1,0.3c-10.5,5-12.1,5.8-17.2,8.7c-0.1-0.1-0.1-0.1-0.2-0.2
				C68.9,128.3,71.5,127.1,80.4,122.9L80.4,122.9z"/>
			<path class="st1" d="M63.6,133.6c0-0.1,0-0.1,0.1-0.2c12.1,5.8,16.1,8,19.2,10.6c-0.1,0-0.1,0.1-0.2,0.1
				C78.8,141.1,76,139.6,63.6,133.6C63.6,133.6,63.6,133.6,63.6,133.6L63.6,133.6z"/>
			<path class="st1" d="M68.3,17.7c0.1,0,0.2,0,0.3,0.1c-7,19.4-10.5,29.1-15.2,48c-0.1,0-0.2,0-0.3-0.1
				C55.3,55.9,58.6,43.4,68.3,17.7L68.3,17.7z"/>
			<path class="st1" d="M143.5,101.6c0,0-1.6,3.6-14.3,10c0.1-0.2,0.1-0.2,0.1-0.4C135.3,108.1,139.5,105.7,143.5,101.6L143.5,101.6
				z"/>
			<path class="st1" d="M83.8,35.2c0.1,0.1,0.2,0.1,0.2,0.2C74.8,46.3,64.3,56,54.7,66.5c-0.1-0.1-0.2-0.2-0.2-0.3
				C63.9,55.6,74.4,45.9,83.8,35.2L83.8,35.2z"/>
			<path class="st1" d="M60.1,100.8c0.1-0.1,0.2-0.2,0.3-0.3c18,16.9,18,16.9,20.9,19.8c-0.1,0.1-0.2,0.1-0.2,0.2
				C79.6,119.2,79.6,119.2,60.1,100.8C60.1,100.8,60.1,100.8,60.1,100.8L60.1,100.8z"/>
			<path class="st1" d="M60.9,99.1c0-0.1,0-0.3,0-0.4c37.5,3,37.5,3,41.7,3.4c0,0.1-0.1,0.3-0.1,0.4
				C99.9,102.3,99.9,102.3,60.9,99.1C60.9,99.1,60.9,99.1,60.9,99.1L60.9,99.1z"/>
			<path class="st1" d="M52.7,71.6c0.1,0,0.2,0,0.4-0.1c1.1,7.5,2,13.4,4.6,24.5c-0.1,0-0.2,0-0.3,0C56.1,90.6,54.4,83.9,52.7,71.6
				C52.7,71.6,52.7,71.6,52.7,71.6L52.7,71.6z"/>
			<path class="st1" d="M55.3,68.9c0-0.1,0-0.3,0-0.4c15.5,0.8,31.1,1.6,46.6,2.4c0,0.1,0,0.3,0,0.5C86.4,70.6,70.8,69.8,55.3,68.9
				C55.3,69,55.3,68.9,55.3,68.9L55.3,68.9z"/>
			<path class="st1" d="M102.2,72.6c0.1,0.1,0.1,0.3,0.2,0.4c-13.6,8.7-28,16.2-41.8,24.4c-0.1-0.1-0.2-0.3-0.2-0.4
				C74.2,88.9,88.6,81.4,102.2,72.6L102.2,72.6z"/>
			<path class="st1" d="M70.1,17.4c0.1-0.1,0.2-0.1,0.2-0.2c3.5,4.2,4.5,5.4,13.5,14.4c-0.1,0.1-0.2,0.1-0.3,0.2
				C75.5,23.8,73.3,21.5,70.1,17.4C70,17.4,70.1,17.4,70.1,17.4L70.1,17.4z"/>
			<path class="st1" d="M78.3,2.4c0,0,0.1,0,0.1,0.1C78.5,5,77.7,7,70.5,14.7c-0.1-0.1-0.1-0.1-0.2-0.2C75.5,9,78.6,5.4,78.3,2.4
				L78.3,2.4z"/>
			<path class="st1" d="M92.9,11.7c0,0.1,0.1,0.1,0.2,0.2C88,13.1,82.4,14.1,71,15.8c0-0.1,0-0.2,0-0.3
				C79.5,14.2,86.2,13.2,92.9,11.7L92.9,11.7z"/>
			<path class="st1" d="M90.2,3.5c8.2,3.6,16.9,8.3,26,23.2c0,0-0.1,0-0.2,0C110,17.4,103.9,9.2,90.2,3.5L90.2,3.5z"/>
			<path class="st1" d="M116.3,15.4c0,0,4.5,3.7,1.7,12.4c-0.1-0.1-0.2-0.2-0.3-0.3C118.6,23.9,119.6,20.6,116.3,15.4L116.3,15.4z"
				/>
			<path class="st1" d="M89.1,3.2c1.5,0.5,3.4,2.4,3.6,2.6c1.5,2.1,1.5,2.4,1.7,4.9c-0.1-0.1-0.2-0.1-0.3-0.2
				C93.8,6.8,93.2,5.7,89.1,3.2L89.1,3.2z"/>
			<path class="st1" d="M79.1,2.5L79.1,2.5c3.9,2,7.1,3.8,13.3,7.9c0,0,0,0.1-0.1,0.1C86.6,6.8,83.8,5,79.1,2.5
				C79.1,2.5,79.1,2.5,79.1,2.5L79.1,2.5z"/>
			<path class="st1" d="M104.6,74.3c0.1,0,0.2,0,0.4,0c0.6,9,0.9,15.3,0.2,25.6c-0.1,0-0.2,0-0.3,0
				C105.3,90.8,105.5,85.3,104.6,74.3L104.6,74.3L104.6,74.3z"/>
			<path class="st1" d="M74.8,0.6C74.8,0.6,74.7,0.6,74.8,0.6c0.7,0,3.9,0.3,12.2,1.9c0.1,0,0.2,0.1,0.3,0.1
				C78.8,1,75.6,0.7,74.8,0.6C74.8,0.6,74.8,0.6,74.8,0.6L74.8,0.6z"/>
			<path class="st1" d="M75,0.7C75,0.7,75,0.7,75,0.7c0.7,0.2,1.6,0.6,2.3,0.9c0,0,0,0,0,0C76.7,1.3,75.7,0.9,75,0.7
				C75,0.7,75,0.7,75,0.7L75,0.7z"/>
			<path class="st1" d="M78.8,2.1c0,0-0.1-0.1-0.1-0.1c4.8,0.4,6,0.5,8.7,0.7c0.1,0,0.2,0.1,0.3,0.1C85.2,2.6,83.8,2.4,78.8,2.1
				C78.9,2.1,78.8,2.1,78.8,2.1L78.8,2.1z"/>
			<path class="st1" d="M95.9,12.8c0,0,0-0.1,0-0.1c8.3,5.6,12,8.3,19.4,14.4c0,0.1,0,0.2-0.1,0.2C107.8,21.1,104.1,18.4,95.9,12.8
				C95.9,12.9,95.9,12.8,95.9,12.8L95.9,12.8z"/>
			<path class="st1" d="M94.1,12.7c0.1,0,0.2,0.1,0.2,0.1c-0.1,3.4-0.2,8.1-7.4,19c-0.1-0.1-0.2-0.1-0.3-0.2
				C89.8,26.5,94.2,19.5,94.1,12.7L94.1,12.7z"/>
			<path class="st1" d="M125,67.4c0,0.2,0,0.3,0.1,0.5c-6.8,1.4-9,1.8-17.9,3.3c0-0.2,0-0.3-0.1-0.5C116,69.1,118.2,68.8,125,67.4
				L125,67.4z"/>
			<path class="st1" d="M86.6,35.8c0.1,0,0.2-0.1,0.3-0.1c5.6,10,11,19.5,16.8,32.8c-0.1,0-0.2,0.1-0.3,0.1
				C97.8,56.6,95.7,52.1,86.6,35.8C86.5,35.8,86.6,35.8,86.6,35.8L86.6,35.8z"/>
			<path class="st1" d="M115.8,29c0.1,0.1,0.1,0.2,0.2,0.3c-2.6,0.6-8.1,1.8-28.1,4.3c0-0.1,0-0.2-0.1-0.3
				C113.5,29.4,113.5,29.4,115.8,29L115.8,29z"/>
			<path class="st1" d="M117.3,30.6c0,0,0.1,0.1,0.2,0.1c0.5,9.5-1.2,19.2-11.3,38.2c-0.1-0.1-0.3-0.2-0.4-0.3
				C111.9,56.9,117.9,44.3,117.3,30.6L117.3,30.6z"/>
			<path class="st1" d="M82.9,124.2c0.1,0,0.2,0,0.3-0.1c1.1,5.4,2.6,13.5,0.6,19.5c-0.1,0-0.2,0-0.2,0.1
				C84.4,140.3,85.5,135.9,82.9,124.2C82.9,124.2,82.9,124.2,82.9,124.2L82.9,124.2z"/>
			<path class="st1" d="M102.7,104.3c0.1,0.1,0.1,0.2,0.2,0.3c-6.8,6.1-7.7,6.9-18.3,16c-0.1-0.1-0.1-0.1-0.2-0.2
				C90.5,115,96.7,109.8,102.7,104.3L102.7,104.3z"/>
			<path class="st1" d="M84.7,122.7c0-0.1,0.1-0.2,0.1-0.3c7.2,1.8,20.6,5.1,27.6,8.7c-0.1,0.1-0.2,0.2-0.2,0.2
				C106.8,129.1,101.7,126.9,84.7,122.7C84.7,122.8,84.7,122.7,84.7,122.7L84.7,122.7z"/>
			<path class="st1" d="M84,145c0.1,0,0.1-0.1,0.2-0.1c2.4,1.1,3.2,1.5,3.6,2.5c-0.1,0-0.2,0.1-0.3,0.1
				C87.1,146.6,86.6,146.2,84,145C84,145,84,145,84,145L84,145z"/>
			<path class="st1" d="M111.2,132.5c0,0-1,1.3-26.6,11.6c0,0,0-0.1,0-0.1C104.7,135.7,104.7,135.7,111.2,132.5L111.2,132.5z"/>
			<path class="st1" d="M126,114.6c0,0,0.1,0,0.2,0c-3.6,5.8-5.4,8.8-11.3,15.3c0,0-0.1,0-0.2,0C119.3,124.5,121.5,122.1,126,114.6
				L126,114.6z"/>
			<path class="st1" d="M106,104.6c0.1-0.1,0.2-0.1,0.3-0.3c6,10,8.9,17.1,7.2,25.9c-0.1,0-0.2,0.1-0.2,0.2
				C114.1,123.9,114.1,117.9,106,104.6C106,104.7,106,104.6,106,104.6L106,104.6z"/>
			<path class="st1" d="M96.2,3.8c9.6,2.8,16,7.8,18.1,9.5c0,0-0.1,0-0.1-0.1c0,0-0.1,0-0.1-0.1c-1.1-0.6-2.4-1.8-3.4-2.6
				C108.4,9,104.2,6.5,96.2,3.8L96.2,3.8z"/>
			<path class="st1" d="M90.2,3.3c-0.1,0-0.1-0.1-0.2-0.1c9.6,3,14.9,5.2,23.6,10.1c0.1,0.1,0.1,0.1,0.2,0.2
				C106.8,9.6,101.3,6.8,90.2,3.3C90.2,3.4,90.2,3.3,90.2,3.3L90.2,3.3z"/>
			<path class="st1" d="M119.2,30.8c0-0.1,0.1-0.1,0.1-0.2c6,5.9,10.1,9.9,16,18.2c0,0.1-0.1,0.1-0.1,0.2
				C130.4,42.6,127.5,38.8,119.2,30.8C119.2,30.8,119.2,30.8,119.2,30.8L119.2,30.8z"/>
			<path class="st1" d="M118.3,31.1c0.1,0,0.1,0,0.2,0c2.7,5.8,7.3,15.6,8.5,33.2c-0.1,0-0.1,0-0.2,0
				C125.6,53.8,124.5,43.9,118.3,31.1L118.3,31.1z"/>
			<path class="st1" d="M125.8,69.5c0.1,0.1,0.2,0.2,0.3,0.2c-3.3,7.1-7,15.2-19.3,30.7c-0.1-0.1-0.2-0.2-0.3-0.2
				C116.2,87.8,121,80,125.8,69.5L125.8,69.5z"/>
			<path class="st1" d="M136.1,93.5c0,0,0.1,0.1,0.2,0.1c-2.4,6.6-3.5,9.6-7.3,16.2c-0.1,0-0.1-0.1-0.2-0.1
				C132,103.7,133.8,100.4,136.1,93.5L136.1,93.5z"/>
			<path class="st1" d="M107,103.5c0.1-0.2,0.1-0.3,0.1-0.4c8.8,3.1,13.5,5,19.4,8.2c-0.1,0.2-0.1,0.2-0.2,0.4
				C122.3,109.6,119,107.7,107,103.5C106.9,103.5,106.9,103.5,107,103.5L107,103.5z"/>
			<path class="st1" d="M135.5,91.4c0,0.1,0,0.2,0,0.4c-5.3,2.5-11,5.1-28.2,10.3c0-0.1,0-0.2,0-0.3
				C125.2,95.8,127.5,95.1,135.5,91.4L135.5,91.4z"/>
			<path class="st1" d="M136,52.5c0.1,0.2,0.1,0.2,0.2,0.4c-2.1,4.7-3,6.5-7.7,12.8c-0.1-0.2-0.1-0.2-0.2-0.4
				C132.1,60.2,133.5,58.3,136,52.5L136,52.5z"/>
			<path class="st1" d="M128.3,69.7c0.1-0.1,0.1-0.2,0.2-0.3c3,5.4,6,11,8.2,19c-0.1,0.1-0.1,0.1-0.2,0.3
				C134.8,83.5,133.1,78,128.3,69.7C128.3,69.7,128.3,69.7,128.3,69.7L128.3,69.7z"/>
			<path class="st1" d="M111,133.4C111,133.5,111.1,133.5,111,133.4c-5,4.2-11.4,9.4-21.4,13.4C95.2,144.3,101.5,141.4,111,133.4
				L111,133.4z"/>
			<path class="st1" d="M137.3,34.7c5.3,8.8,6.3,11.1,9.3,20.8C143.5,45.7,142.5,43.3,137.3,34.7L137.3,34.7z"/>
			<path class="st1" d="M129.1,126.5c-0.1,0.1-0.2,0.2-0.3,0.3c-1.2,1-3,2.4-14.5,4.8c0.1-0.1,0.1-0.3,0.3-0.3
				c0.8-0.3,1.9-0.4,2.7-0.6C120.1,130.1,127.2,128.4,129.1,126.5L129.1,126.5z"/>
			<path class="st1" d="M121.3,133.7c-0.2,0.2-0.4,0.3-0.6,0.5c-4.9,3.6-7.2,5.2-14.4,8.6c2.9-1.6,5.9-3,8.7-4.7
				C117,136.9,119.4,135.1,121.3,133.7L121.3,133.7z"/>
			<path class="st1" d="M112.9,132.8c0.1-0.1,0.2-0.1,0.3-0.2c-0.4,2.8-0.8,6.3-7.7,10.4c-0.1,0.1-0.3,0.1-0.4,0.2
				C108.3,141.2,112.6,138.4,112.9,132.8C112.9,132.9,112.9,132.9,112.9,132.8L112.9,132.8z"/>
			<path class="st1" d="M117.7,15.9c-0.1-0.1-0.1-0.1-0.2-0.2c5,3.4,11.2,7.7,16.8,14.9c0,0.1,0.1,0.1,0.1,0.2
				C131.1,26.7,127.1,22,117.7,15.9C117.8,15.9,117.8,15.9,117.7,15.9L117.7,15.9z"/>
			<path class="st1" d="M117.5,16.2c0.1,0,13.6,9.8,18.8,32.3c0,0-0.1,0-0.1-0.1C133.8,39.8,130.6,28.1,117.5,16.2L117.5,16.2z"/>
			<path class="st1" d="M136.4,33.4c2.3,3.3,4.3,8.8,1.1,16.4c-0.1-0.2-0.1-0.2-0.2-0.4C138.8,45.5,140.6,40.5,136.4,33.4
				L136.4,33.4z"/>
			<path class="st1" d="M89.5,2.1c0.2,0,0.4,0.1,0.6,0.1l2.6,0.6C92.3,2.7,92.3,2.7,89.5,2.1L89.5,2.1z"/>
			<path class="st1" d="M79,0.8c0.2,0,0.3,0,0.5,0c5.2,0.4,7.7,0.9,8.8,1.9c-0.1,0-0.3-0.1-0.4-0.1c-0.1-0.1-0.3-0.2-0.4-0.3
				c-0.1-0.1-0.8-0.5-2.4-0.8C82.9,1,80.4,0.9,79,0.8L79,0.8z"/>
			<path class="st1" d="M88.9,2.9c-0.1,0-0.2-0.1-0.3-0.1c2.8,0.1,4,0.2,5.1,0.4c0.2,0,0.3,0.1,0.5,0.1C93.1,3.1,92.1,3,88.9,2.9
				C88.9,2.9,88.9,2.9,88.9,2.9L88.9,2.9z"/>
			<path class="st1" d="M147.9,61.1c1.2,7.9,2.9,19.9-2.7,37.1C147.7,89.4,150.8,78.4,147.9,61.1L147.9,61.1z"/>
			<path class="st1" d="M138.2,92c0.1-0.2,0.1-0.3,0.1-0.4c2.7,2.5,4.9,4.5,5.8,8.2c-0.1,0.1-0.1,0.3-0.2,0.4
				C143.2,97.7,142.6,95.9,138.2,92C138.2,92,138.2,92,138.2,92L138.2,92z"/>
			<path class="st1" d="M87.7,147.8c0.1,0,0.2-0.1,0.3-0.1c0.5,0.3,1.3,1-2.6,1.6c-0.3,0-0.7,0.1-1,0.1c-0.2,0-0.3,0-0.5,0.1
				C87,149.1,88.8,148.6,87.7,147.8C87.7,147.8,87.7,147.8,87.7,147.8C87.7,147.8,87.7,147.8,87.7,147.8L87.7,147.8z"/>
			<path class="st1" d="M102.7,144.4c0.1,0,0.2-0.1,0.3-0.1c-3.7,1.6-3.9,1.7-6.9,2.6l-0.6,0.2C99.5,145.8,100,145.7,102.7,144.4
				C102.7,144.5,102.7,144.5,102.7,144.4L102.7,144.4z"/>
			<path class="st1" d="M103.5,143.9c0,0-3.2,1.3-15,3.6c0.1,0,0.2-0.1,0.3-0.1C93.7,146.2,98.7,145.4,103.5,143.9L103.5,143.9z"/>
			<path class="st1" d="M137.3,53.8c0.1,0,0.1,0,0.2,0c2.2,11.5,2.8,19.5,0.4,34.2c-0.1,0-0.1,0-0.2,0
				C139.6,75.1,139.9,67.5,137.3,53.8L137.3,53.8z"/>
			<path class="st1" d="M138.2,51.8c0-0.2-0.1-0.3-0.1-0.4c5,2.4,6.8,3.5,8.8,6c0,0.2,0.1,0.3,0.1,0.5
				C145.2,55.7,143.9,54.6,138.2,51.8C138.2,51.9,138.2,51.9,138.2,51.8L138.2,51.8z"/>
			<path class="st1" d="M147.5,60c0,0.1,3.1,11.9-8.9,29.1c0-0.1-0.1-0.2-0.1-0.3C142.6,82.5,148.7,73.1,147.5,60L147.5,60z"/>
			<path class="st1" d="M3,54.1c-0.3,1.2-1,3.6-1.2,4.8C2.1,57.3,2.6,55.7,3,54.1L3,54.1z"/>
			<path class="st1" d="M67.1,149.7c0,0-0.1,0-0.1,0c1.4,0.1,3.4,0.3,6,0.4c0,0-0.1,0-0.1,0C70.9,150,69,149.9,67.1,149.7
				L67.1,149.7z"/>
			<path class="st1" d="M15.4,120.8C15.4,120.8,15.4,120.7,15.4,120.8c0.1,0.1,3.5,4.3,3.6,4.3c0,0,0,0,0,0
				C17.7,123.7,16.5,122.2,15.4,120.8L15.4,120.8z"/>
			<path class="st1" d="M74.7,0.6c-1.3,0-2.4,0-3.1,0.1C72.6,0.7,73.6,0.6,74.7,0.6L74.7,0.6z"/>
			<path class="st1" d="M49.8,5.1c-1.3,0.5-2.4,1-2.7,1.1c0,0,0,0,0,0c0.4,0,5-1.9,5.2-2c0,0,0,0,0,0C52,4.4,51,4.7,49.8,5.1
				L49.8,5.1z"/>
			<path class="st1" d="M21.2,25.1c1-1.1,2-2,2.4-2c0.6,0.1-2,3.2-3.1,3.9c-0.5,0.3-0.7,0.3-0.6,0C20,26.6,20.5,25.9,21.2,25.1
				L21.2,25.1z"/>
			<path class="st1" d="M39.6,139.7c-1.2-0.8-1.7-1.3-1.5-1.3c0,0,0,0,0.1,0c0.8,0.1,4.8,2.6,4.5,2.9
				C42.6,141.3,41.2,140.7,39.6,139.7L39.6,139.7z"/>
			<path class="st1" d="M14.5,60c0.2-1.3,1-2.7,2.1-2.8c1.8,0,1.6,3.8,0.1,5.2c-1.1,1-2.4,0.5-2.4-1.5C14.5,60.6,14.5,60.3,14.5,60
				L14.5,60z"/>
			<path class="st1" d="M20.6,95.2c-0.4-1.9,0.4-2.8,1.3-2.8c2.4,0.2,3.2,4.2,2,5.3C23,98.5,21.1,97.7,20.6,95.2L20.6,95.2z"/>
			<path class="st1" d="M71.7,150c-1.2-0.1-2-0.2-2-0.2c1.4,0.1,2.8,0.3,4.2,0.3C73.7,150,72.8,150,71.7,150L71.7,150z"/>
			<path class="st1" d="M33.8,123.4c-0.8-1.3-0.6-2.1,0.3-2.2c2,0.1,4,3.3,3,4.1C36.6,125.9,34.9,125.3,33.8,123.4L33.8,123.4z"/>
			<path class="st1" d="M37.4,22.9c0.6-0.9,1.7-1.9,2.8-2c1.3,0,0.6,1.8-0.6,2.9c-1.3,1.3-2.7,1.4-2.8,0.4
				C36.8,23.9,37.1,23.2,37.4,22.9L37.4,22.9z"/>
			<path class="st1" d="M59.7,4.5c0.9-0.5,1.9-0.8,2.3-0.9c0.1,0,0.3,0,0,0.2c-0.8,0.8-3.5,2-3.5,1.5C58.6,5.2,59,4.9,59.7,4.5
				L59.7,4.5z"/>
			<path class="st1" d="M66.1,148.4c-0.8-0.3-1.1-0.6-0.9-0.6c0,0,0.1,0,0.1,0c0.6,0,2.9,1,2.9,1.2C68.1,149,67,148.7,66.1,148.4
				L66.1,148.4z"/>
			<path class="st1" d="M49.8,68.6c0.1-1.7,1.2-2.9,2.8-2.9c3,0,3.4,3.6,1.8,5.2C52.8,72.3,49.7,71.6,49.8,68.6L49.8,68.6z"/>
			<path class="st1" d="M60,132.5c-0.4-1,0.2-1.8,1.2-1.8c2.1,0,3,2.3,2.2,3.3C62.6,134.8,60.6,134.3,60,132.5L60,132.5z"/>
			<path class="st1" d="M55.4,98.7c-0.2-1.9,1.1-2.7,2.5-2.8c2.9,0.1,3.7,3.4,2.2,4.8C58.7,102.2,55.6,101.2,55.4,98.7L55.4,98.7z"
				/>
			<path class="st1" d="M67.4,15.9c0.1-0.3,0.5-1.5,2-1.6c1.7,0,1.9,1.9,1,2.8c-1,1-3.1,0.7-3.1-0.7C67.3,16.3,67.3,16.1,67.4,15.9
				L67.4,15.9z"/>
			<path class="st1" d="M80.3,121.9c0.1-0.9,0.9-1.9,2.5-2c2.6,0.1,2.5,2.7,1.3,3.7c-1.5,1.3-4,0.6-3.8-1.5
				C80.3,122,80.3,121.9,80.3,121.9L80.3,121.9z"/>
			<path class="st1" d="M74.7,0.6c0.2,0,0.4,0,0.4,0c0,0,0,0,0,0c0,0,0,0-0.1,0C74.8,0.6,74.7,0.6,74.7,0.6L74.7,0.6z"/>
			<path class="st1" d="M75.4,149.9c0.2-0.1,0.5-0.3,0.7-0.3c0.1,0,0.1,0.1,0.1,0.1c-0.2,0.2-1,0.3-1.1,0.3c0,0,0,0,0,0
				C75.2,150,75.2,149.9,75.4,149.9L75.4,149.9z"/>
			<path class="st1" d="M83,33.3c0-1,0.6-2,2.2-2.1c2.6,0.1,3.4,2.9,2.2,4.1C86.1,36.6,83,35.9,83,33.3L83,33.3z"/>
			<path class="st1" d="M77.6,2c-0.2-0.2-0.4-0.5-0.1-0.5c0.6,0,1.9,0.8,1.6,1.1C79,2.7,78.3,2.6,77.6,2L77.6,2z"/>
			<path class="st1" d="M82.3,144.6c0.5-0.8,1.3-1.1,1.8-1.1c0.8,0,0.8,0.6,0,1.4c-0.9,0.8-2.1,1.1-2.1,0.4
				C82,145.1,82.1,144.8,82.3,144.6L82.3,144.6z"/>
			<path class="st1" d="M101.9,71.3c0-1.7,1-2.9,2.6-2.9c2.9,0.1,3.4,4,1.8,5.4C104.8,75,102,74.3,101.9,71.3L101.9,71.3z"/>
			<path class="st1" d="M102.4,102.6c0.3-2.1,2-2.7,2.9-2.7c2.7,0.1,2.4,3.2,1,4.5c-1.5,1.4-3.9,0.9-3.9-1.3
				C102.4,102.8,102.4,102.6,102.4,102.6L102.4,102.6z"/>
			<path class="st1" d="M92.7,11.4c-0.2-0.3-0.8-1.2,0.2-1.3c1.6,0.1,3.6,2.2,2.9,2.8C95.3,13.4,93.7,12.9,92.7,11.4L92.7,11.4z"/>
			<path class="st1" d="M87.1,147.6c0.9-0.4,1.9-0.8,2.4-0.8c0.1,0,0.1,0,0.1,0.1c-0.3,0.4-3.6,1.5-3.9,1.4c0,0,0,0,0,0
				C85.7,148.2,85.8,148.1,87.1,147.6L87.1,147.6z"/>
			<path class="st1" d="M124.9,66.9c0-1.5,0.7-2.5,1.8-2.6c2.1,0,3,4,1.6,5.4C127.1,70.9,125,69.9,124.9,66.9L124.9,66.9z"/>
			<path class="st1" d="M115.6,28.6c-0.7-1.3-0.3-1.9,0.4-1.9c1.6,0,4.1,3.3,3.1,4.2C118.5,31.5,116.7,30.7,115.6,28.6L115.6,28.6z"
				/>
			<path class="st1" d="M87.8,2.8c-1.4-0.5-1.6-0.5-1.7-0.6c0,0,0,0,0,0c0.6,0,4.3,1.1,4.4,1.4C90.2,3.6,88.9,3.2,87.8,2.8L87.8,2.8
				z"/>
			<path class="st1" d="M111.8,131.7c1-1.1,2-1.8,2.8-1.9c0.8,0,0.4,1-0.9,2.2c-1.4,1.4-2.8,1.8-2.8,1.1
				C110.9,132.9,111.3,132.4,111.8,131.7L111.8,131.7z"/>
			<path class="st1" d="M126,112.2c0.7-1.4,1.7-2.4,2.6-2.4c1.5,0,0.5,2.9-0.9,4.2c-1.1,1-2.1,0.9-2.1-0.2
				C125.6,113.4,125.7,112.9,126,112.2L126,112.2z"/>
			<path class="st1" d="M135.7,90.5c0.3-1.2,0.9-2.5,1.9-2.5c1.6,0.1,1.2,3.9-0.2,5.3c-0.8,0.7-1.9,0.6-1.9-1.4
				C135.5,91.7,135.5,91.2,135.7,90.5L135.7,90.5z"/>
			<path class="st1" d="M135.3,50.7c-0.3-1.1-0.3-2.3,0.6-2.4c1.4,0,3.1,4.2,2.1,5.2C137.4,54.2,136,53.3,135.3,50.7L135.3,50.7z"/>
			<path class="st1" d="M114.9,14.4c-0.8-0.6-1.7-1.4-1.4-1.4c0.8,0.1,4.7,2.9,4.4,3.3C117.8,16.4,117.1,16.1,114.9,14.4L114.9,14.4
				z"/>
			<path class="st1" d="M104.1,143.7c1.6-0.7,2.4-1.1,2.6-1.1c-0.1,0.3-4.7,2.2-5.1,2.3C101.6,144.8,101.6,144.8,104.1,143.7
				L104.1,143.7z"/>
			<path class="st1" d="M143.7,100.8c0.6-1.6,1.1-2.6,1.3-2.6c0.5,0.1-1.2,5-1.9,5.4c-0.2,0.1-0.2-0.3,0-1
				C143.3,102,143.6,101.3,143.7,100.8L143.7,100.8z"/>
			<path class="st1" d="M94,3.2c-0.9-0.2-1.8-0.4-2.7-0.7c1.2,0.2,4.6,1.1,5.6,1.5c-0.1,0-0.1,0-0.4-0.1C95.1,3.5,94.7,3.4,94,3.2
				L94,3.2z"/>
			<path class="st1" d="M147.1,58.3c-0.3-1.2-0.6-2.6-0.5-2.8c0.2,0.2,1.4,5.2,1.3,5.7C147.8,61.1,147.3,59.3,147.1,58.3L147.1,58.3
				z"/>
			<path class="st1" d="M135.6,32.2c-0.5-0.7-1-1.3-1.4-2l0,0l0.8,1.1l2.4,3.5C136.7,33.9,136.2,33,135.6,32.2L135.6,32.2z"/>
		</g>
		<g>
			<path class="st2" d="M101.6,145.5c-0.1,0-0.2,0.1-0.3,0.1c5.7-2.3,8.1-3.2,14.2-6.9c0.2-0.1,0.4-0.2,0.6-0.4
				C111,141.4,109.2,142.5,101.6,145.5C101.6,145.5,101.6,145.5,101.6,145.5L101.6,145.5z"/>
			<path class="st2" d="M120.8,134.9c0.2-0.1,0.3-0.2,0.5-0.4c3.3-2.9,3.4-2.9,4.8-4.6c-0.1,0.1-0.2,0.2-0.3,0.3
				c-0.7,0.6-1.5,1.6-2.1,2.2C122.9,133.2,121.7,134.2,120.8,134.9L120.8,134.9z"/>
			<path class="st2" d="M102,145.2c9-4.1,13.6-6.5,22.8-14.4l0,0C117.1,137.3,112.9,140.4,102,145.2C102,145.2,102,145.2,102,145.2
				L102,145.2z"/>
			<path class="st2" d="M128.3,22.5c-0.1-0.1-0.3-0.3-0.4-0.4c-0.1-0.1-0.2-0.2-0.3-0.3c-5.1-4.7-14.6-13.4-32.2-18.6
				C107.4,7.6,116.9,11.1,128.3,22.5L128.3,22.5z"/>
			<path class="st2" d="M132.3,26.9c-0.1-0.1-0.2-0.3-0.3-0.4c-0.6-0.6-1.4-1.4-2.1-1.9c0.1,0.1,0.2,0.2,0.3,0.3
				C130.8,25.5,131.7,26.2,132.3,26.9L132.3,26.9z"/>
			<path class="st2" d="M144.6,57.4c0.1,0.1,0.1,0.2,0.2,0.3c-0.4-6.3-1-14.9-8.5-25.6c-0.2-0.2-0.3-0.4-0.5-0.7
				C139.4,36.8,144.3,44.3,144.6,57.4C144.6,57.3,144.6,57.4,144.6,57.4L144.6,57.4z"/>
			<path class="st2" d="M95.5,5.5c0.1,0.1,0.2,0.1,0.3,0.2c0.3-0.8,0.4-1-0.1-1.7c-0.4-0.5-1.3-1-2-1.3c-0.1,0-0.3-0.1-0.4-0.1
				c1.1,0.5,1.7,0.8,2.1,1.4C95.8,4.6,95.6,5,95.5,5.5C95.4,5.5,95.5,5.5,95.5,5.5L95.5,5.5z"/>
			<path class="st2" d="M127.2,22c-7.6-7-15.7-13.7-31.6-18.8C105.7,6.7,115,10.6,127.2,22L127.2,22z"/>
			<path class="st2" d="M127.9,23c-0.1-0.1-7.2-7.3-30.8-16.5c1,0.8,2.6,1.1,3.8,1.6C116.9,14.5,124.6,20.5,127.9,23L127.9,23z"/>
			<path class="st2" d="M100.8,145.6c0.1,0,6.3-2.4,10.5-7.7c-0.1,0.1-0.2,0.1-0.3,0.2c-0.7,0.5-1.3,1.5-1.9,2.1
				C109,140.3,106.6,143,100.8,145.6L100.8,145.6z"/>
			<path class="st2" d="M128.9,126.8c10.3-11.2,14.9-19.3,19-33.5c0.1-0.6,0.3-1.1,0.4-1.7C146.2,99.4,142.7,112.5,128.9,126.8
				C128.9,126.8,128.9,126.8,128.9,126.8L128.9,126.8z"/>
			<path class="st2" d="M150,73.4c0-0.2,0-0.4,0-0.6c-0.4-3.6-0.8-6.7-4.3-11.8c0,0.1,0,0.3,0,0.4c0.3,1,1.2,2,1.7,2.9
				C147.6,64.5,149.8,68.3,150,73.4L150,73.4z"/>
			<path class="st2" d="M139.2,83.5c0,0.1,0.1,0.1,0.1,0.2c2.4-6,4.6-11.7,5.3-21.3c-0.1-0.1-0.1-0.1-0.2-0.3
				C143.8,68.2,143.2,73.8,139.2,83.5C139.2,83.5,139.2,83.5,139.2,83.5L139.2,83.5z"/>
			<path class="st2" d="M139.7,85.3c0,0.2,0,0.4,0,0.4c6.5-3,9.8-5.1,10.3-8.4c0-0.2,0-0.3,0-0.5C149.5,79.3,148.4,81.3,139.7,85.3
				C139.7,85.3,139.7,85.3,139.7,85.3L139.7,85.3z"/>
			<path class="st2" d="M83.6,149.6c4.8-1.2,13.7-3.5,26.1-11.2l0-0.1C104.2,141.5,95,147.1,83.6,149.6
				C83.6,149.6,83.6,149.6,83.6,149.6L83.6,149.6z"/>
			<path class="st2" d="M126.2,37.6c0.1,0.1,0.1,0.2,0.2,0.3c3.7-4.4,5.3-7.8,3.4-12.8c-0.1-0.1-0.2-0.2-0.3-0.3
				C131,28.9,130.9,31.9,126.2,37.6C126.2,37.6,126.2,37.6,126.2,37.6L126.2,37.6z"/>
			<path class="st2" d="M144.3,57c0,0,0.1,0.1,0.1,0.1C143,49.4,141,39,131,26.1l-0.1-0.1C135.4,32.2,141.7,40.7,144.3,57
				C144.2,57,144.3,57,144.3,57L144.3,57z"/>
			<path class="st2" d="M143.5,58.2c0-0.6-4.4-8-16.2-17.9c0,0.1,0,0.2,0,0.3C133.4,46,138.6,50.7,143.5,58.2L143.5,58.2z"/>
			<path class="st2" d="M113.7,136.1c-0.1,0.1-0.1,0.1-0.2,0.2c3.6-1.6,7.6-3.5,12-6.4c0.1-0.1,0.2-0.2,0.3-0.3
				C122.6,131.6,120,133.2,113.7,136.1C113.7,136,113.7,136.1,113.7,136.1L113.7,136.1z"/>
			<path class="st2" d="M128.3,127.1c0.1-0.1,13.2-12,10.4-38.5c0,0-0.1,0.1-0.2,0.2C139.4,101.3,139.2,112.8,128.3,127.1
				L128.3,127.1z"/>
			<path class="st2" d="M127.2,128.1c0.1-0.1,5.2-5.2-4-15.2c-0.1,0.2-0.1,0.2-0.3,0.4C126.7,117.7,129.9,122.1,127.2,128.1
				L127.2,128.1z"/>
			<path class="st2" d="M75.2,0c0.4,0,1,0,1,0c-0.1,0-0.1,0-0.2,0l-0.5,0c0.1,0,0.1,0,0.2,0C75.5,0,75.3,0,75.2,0
				C75.2,0,75.2,0,75.2,0L75.2,0z"/>
			<path class="st2" d="M92.4,2.3c-1.8-0.5-10.5-1.8-17-2.3C90.6,2,90.6,2,92.4,2.3L92.4,2.3z"/>
			<path class="st2" d="M91.3,2c0.1,0,0.2,0,0.3,0.1c-4.2-1-5.9-1.4-12.1-1.9l-0.6,0C84.3,0.5,86,0.7,91.3,2C91.3,2,91.3,2,91.3,2
				L91.3,2z"/>
			<path class="st2" d="M79.9,150.5c0.3,0,0.5,0,0.8-0.1c8-0.9,10-1.3,17-3.5C92.5,148.6,88.1,149.9,79.9,150.5L79.9,150.5z"/>
			<path class="st2" d="M82.7,149.9c-0.1,0-0.2,0-0.3,0.1c6.2-1,10.3-1.8,15.6-3.2c0.1-0.1,0.3-0.1,0.4-0.2
				C94.3,147.7,90.3,148.7,82.7,149.9C82.7,149.9,82.7,149.9,82.7,149.9L82.7,149.9z"/>
			<path class="st2" d="M94.8,143.1c0,0-0.1,0.1-0.1,0.1c7-2.3,10.7-3.7,15.5-5.6c0.1-0.1,0.2-0.2,0.3-0.3
				C104.8,139.6,102.1,140.7,94.8,143.1C94.8,143.1,94.8,143.1,94.8,143.1L94.8,143.1z"/>
			<path class="st2" d="M113.2,135.4c0.1,0,6.9-5.6,8.8-21.2c-0.1,0-0.2,0.1-0.2,0.1C120.6,121.3,119.6,127.2,113.2,135.4
				L113.2,135.4z"/>
			<path class="st2" d="M83.2,149.6c0.5-0.1,4.9-1,9.1-4.9c-0.1,0-0.2,0-0.2,0.1c-0.8,0.4-1.6,1.3-2.3,1.9
				C88.1,148,84.4,149.3,83.2,149.6L83.2,149.6z"/>
			<path class="st2" d="M75,150.7l0.5,0c4.7-0.1,5.8-0.4,6.2-0.6c-0.1,0-0.2,0-0.4,0.1c-0.1,0-0.1,0.1-0.2,0.1
				c-0.3,0.2-1.5,0.3-2,0.3C78.7,150.6,77.5,150.7,75,150.7L75,150.7z"/>
			<path class="st2" d="M74.7,150.7c1.7-0.1,2.5-0.1,5.7-0.5c0.1,0,0.2,0,0.3-0.1C77.8,150.5,76.8,150.6,74.7,150.7L74.7,150.7
				L74.7,150.7z"/>
			<path class="st2" d="M138,83.2c0.1,0,0.1-0.1,0.2-0.1c-0.4-8.3-1.1-22.3-11.4-41.9c-0.1,0-0.1,0.1-0.2,0.1
				C132,52.2,137.3,64.4,138,83.2L138,83.2z"/>
			<path class="st2" d="M123.6,109.7c0,0,0.1,0.1,0.1,0.1c4.1-5.2,8.3-10.6,13.4-21.1c-0.1-0.1-0.1-0.1-0.2-0.2
				C133.6,95.2,131.1,100,123.6,109.7C123.6,109.7,123.6,109.7,123.6,109.7L123.6,109.7z"/>
			<path class="st2" d="M121.5,110.1c0.1,0,0.1-0.1,0.2-0.2c-0.8-5-3-18.3-20.3-42.8c-0.1,0.1-0.3,0.2-0.4,0.3
				C109.9,80.3,119.2,95.5,121.5,110.1L121.5,110.1z"/>
			<path class="st2" d="M136.8,85.2c0-0.1,0.1-0.3,0.1-0.4c-7.8-6.4-17.9-11.9-34.7-19.2c0,0.1-0.1,0.3-0.1,0.4
				C116.7,72.8,127.2,77.7,136.8,85.2L136.8,85.2z"/>
			<path class="st2" d="M83.9,33.9c0.1,0,0.3,0,0.4,0c0,0,0,0,0,0c0,0,0,0,0,0c0,0,0,0,0,0s0,0,0,0s0,0,0,0c0,0,0,0,0,0c0,0,0,0,0,0
				s0,0,0,0c-1.1-5.7-4.4-23.1-7.9-31.4c-0.1,0-0.1,0-0.1,0h0c0,0,0,0,0,0h0h0c0,0,0,0,0,0h0h0C77.2,4.8,79.9,12,83.9,33.9
				L83.9,33.9z"/>
			<path class="st2" d="M93.8,5.4C93.2,4.9,81.3,1,75.6,0.1C79.1,0.8,83.3,1.7,93.8,5.4L93.8,5.4z"/>
			<path class="st2" d="M94.3,5.7C94,5.5,94,5.5,91.6,5c-4.9-1.1-9.9-2-14.8-3.1c0,0,0,0.1,0,0.1C82.6,3.3,88.5,4.4,94.3,5.7
				L94.3,5.7z"/>
			<path class="st2" d="M74.9,150.7c3.3-0.3,7.1-0.7,16.5-5.9l0-0.1C86.5,147.3,81.1,150.3,74.9,150.7
				C74.9,150.7,74.9,150.7,74.9,150.7L74.9,150.7z"/>
			<path class="st2" d="M123.9,36.3c0,0,0.1,0,0.1,0C117.6,25,110.6,15.7,97.4,7.1C106.2,13.2,114.3,19.7,123.9,36.3L123.9,36.3z"/>
			<path class="st2" d="M86.1,34.4c0.1,0.1,0.2,0.1,0.3,0.2c8.6-9.7,15.8-19.7,10-27.8c-0.1,0-0.2-0.1-0.3-0.1
				C99.7,12.4,99.4,19.4,86.1,34.4C86.1,34.4,86.1,34.4,86.1,34.4L86.1,34.4z"/>
			<path class="st2" d="M101.6,62.9c0.1,0.1,0.1,0.2,0.2,0.3c10.1-7.7,17.8-14.6,22.9-22.8c-0.1-0.1-0.2-0.2-0.3-0.4
				C120.8,45.6,116.3,51.5,101.6,62.9C101.6,62.9,101.6,62.9,101.6,62.9L101.6,62.9z"/>
			<path class="st2" d="M123.7,38.9c-0.1-0.1-0.1-0.3-0.2-0.4c-7.5-0.6-15.8-1.2-36.5-2.2c0,0.1,0,0.3,0,0.4
				C96.1,37.1,111.2,37.9,123.7,38.9L123.7,38.9z"/>
			<path class="st2" d="M74.7,150.7c-0.1,0-0.2,0-0.3,0C74.4,150.7,74.6,150.7,74.7,150.7L74.7,150.7z"/>
			<path class="st2" d="M74.7,150.7L74.7,150.7c2.3,0,3.2-0.7,2.8-2.1c0,0-0.1,0.1-0.1,0.1c0,0.5,0,1.2-0.3,1.5
				C76.5,150.5,75.8,150.7,74.7,150.7L74.7,150.7z"/>
			<path class="st2" d="M78.1,147.8C78.1,147.8,78.1,147.8,78.1,147.8c4.5-1.1,13.5-3.6,13.6-3.6c0.1-0.1,0.1-0.1,0.2-0.2
				C87.3,145.2,82.7,146.4,78.1,147.8C78.1,147.7,78.1,147.7,78.1,147.8L78.1,147.8z"/>
			<path class="st2" d="M120.5,111.3c0.1-0.1,0.1-0.2,0.2-0.3c-6.8-4.7-15.3-8.9-31.1-15.3c0,0.1-0.1,0.2-0.1,0.3
				C107.4,103.8,112.2,105.9,120.5,111.3L120.5,111.3z"/>
			<path class="st2" d="M94.9,142.4c7.1-5.2,15.7-12.6,25.7-27.9c-0.1,0-0.2-0.1-0.2-0.1C115.9,121.1,108.4,132.3,94.9,142.4
				C94.9,142.4,94.9,142.4,94.9,142.4L94.9,142.4z"/>
			<path class="st2" d="M92.9,143.2c0.1-0.1,0.2-0.1,0.3-0.2c-1.7-3.5-4.6-6-12.8-10.9c-0.1,0.1-0.1,0.2-0.2,0.3
				C88.4,137.3,91.3,139.7,92.9,143.2L92.9,143.2z"/>
			<path class="st2" d="M80.6,130.3c0,0.1,0.1,0.2,0.1,0.2c25.9-10.5,35.3-15.2,39.2-17.3c0-0.1,0-0.3,0-0.4
				C108,118.9,102.7,121.1,80.6,130.3C80.5,130.3,80.5,130.3,80.6,130.3L80.6,130.3z"/>
			<path class="st2" d="M82.5,34.6c0.1-0.1,0.1-0.2,0.2-0.2C69,21.4,66.2,18.7,62.9,12.8c-0.1,0-0.1,0.1-0.2,0.1
				C66.5,19.6,71.4,24.5,82.5,34.6L82.5,34.6z"/>
			<path class="st2" d="M82,36.1c0-0.1,0-0.3,0-0.4c-16.5-2.7-24-3.9-35.7-6.3c-0.1,0.1-0.1,0.3-0.2,0.4
				C58.1,32.2,65.1,33.3,82,36.1L82,36.1z"/>
			<path class="st2" d="M87.9,92.2c0.1,0,0.2,0.1,0.3,0.1c4.2-8.8,6.5-14.1,10.5-24.7c-0.2-0.1-0.2-0.1-0.4-0.2
				C95.1,75.8,93.4,80.5,87.9,92.2C87.9,92.1,87.9,92.2,87.9,92.2L87.9,92.2z"/>
			<path class="st2" d="M98,62.1c0.1,0,0.2-0.1,0.3-0.1c-2.9-6.2-4.4-9.4-12.3-23.5c-0.1,0-0.2,0.1-0.3,0.1
				C95.8,57.6,95.8,57.6,98,62.1L98,62.1z"/>
			<path class="st2" d="M43,63.9c0,0.1,0.1,0.1,0.1,0.2c13.1-8.9,26.4-17.3,39.5-26.2c-0.1-0.1-0.2-0.2-0.3-0.4
				C69.3,46.3,55.8,54.5,43,63.9C43,63.9,43,63.9,43,63.9L43,63.9z"/>
			<path class="st2" d="M43.4,65.5c0,0.1,0,0.2,0,0.3c6.5,0.1,6.5,0.1,53.3-0.7c0-0.1,0-0.3,0-0.5C79,64.9,61.2,65.1,43.4,65.5
				C43.4,65.5,43.4,65.5,43.4,65.5L43.4,65.5z"/>
			<path class="st2" d="M72.4,0.1c-0.1,0-0.3,0-0.4,0c1,0,2.1,0,3.1,0c0,0-0.1,0-0.1,0C74.1,0,73.3,0,72.4,0.1
				C72.4,0.1,72.4,0.1,72.4,0.1L72.4,0.1z"/>
			<path class="st2" d="M57,144.7c0.1,0,0.2,0.1,0.2,0.1c1.5-3.2,5.1-6.3,19.5-12.6c-0.1-0.1-0.1-0.2-0.1-0.3
				C65.5,136.9,58.4,140.7,57,144.7C57,144.7,57,144.7,57,144.7L57,144.7z"/>
			<path class="st2" d="M77.4,147.2c0,0,0.1,0,0.2,0c0.5-2.2,1.3-5.4,1.3-14.1c-0.1,0-0.2,0-0.3,0C78.5,137.2,78.5,143.3,77.4,147.2
				L77.4,147.2z"/>
			<path class="st2" d="M73.4,150.6c-5.1-0.6-10.1-2.7-14.5-4.6C58.9,146.1,65.1,149.4,73.4,150.6L73.4,150.6z"/>
			<path class="st2" d="M73.8,150.7c0.1,0,0.1,0,0.2,0c-0.3-0.1-0.7-0.1-0.9-0.3c0.2-0.4,0.3-0.7,3.3-1.9c0,0,0-0.1,0-0.1
				c-0.7,0.3-1.8,0.7-2.5,1.1c-0.3,0.2-0.7,0.5-0.9,0.8C73.2,150.6,73.2,150.6,73.8,150.7C73.8,150.7,73.8,150.7,73.8,150.7
				L73.8,150.7z"/>
			<path class="st2" d="M76.4,148C76.4,148,76.4,147.9,76.4,148c-6.1-1.1-12.2-1.8-18.4-2.7c0.2,0.2,0.2,0.2,2.4,0.5
				C65.8,146.6,71.1,147.2,76.4,148L76.4,148z"/>
			<path class="st2" d="M46.2,27.2c0,0,0.1,0.1,0.2,0.1c5.5-5.6,8.1-8.2,14.5-14.1c-0.1-0.1-0.1-0.1-0.2-0.1
				C55.8,17.5,51.7,21.3,46.2,27.2C46.1,27.1,46.1,27.2,46.2,27.2L46.2,27.2z"/>
			<path class="st2" d="M76.8,130.4c0-0.1,0.1-0.2,0.1-0.2c-14.9-8.8-30.5-16.4-45.1-25.7c0,0.1,0,0.2,0,0.3
				c5.1,3.4,6.4,4.2,13.3,8.2C55.6,118.9,66.3,124.5,76.8,130.4L76.8,130.4z"/>
			<path class="st2" d="M79,129.3c0.1,0,0.1,0,0.2,0c3.3-11.8,7-29.6,7.4-31.6c-0.2,0-0.3,0-0.5-0.1C84.3,106,83.2,111.5,79,129.3
				C78.9,129.3,78.9,129.3,79,129.3L79,129.3z"/>
			<path class="st2" d="M84.3,93.6c0.1-0.1,0.2-0.3,0.3-0.4C53.8,74.7,53.8,74.7,43.1,67.1c-0.1,0.1-0.2,0.3-0.2,0.4
				C53.1,74.7,53.1,74.7,84.3,93.6L84.3,93.6z"/>
			<path class="st2" d="M31.5,102.7c0,0.1,0.1,0.2,0.1,0.3c34.5-5.1,34.5-5.1,52.4-7.5c0-0.1,0-0.3,0-0.5
				C60,98.2,45.5,100.1,31.5,102.7C31.5,102.7,31.5,102.7,31.5,102.7L31.5,102.7z"/>
			<path class="st2" d="M76.2,1.2C76.2,1.3,76.2,1.3,76.2,1.2c0.1-0.2,0-0.5,0-0.7c-0.2-0.1-0.4-0.3-0.5-0.4c0,0-0.1,0-0.1,0
				c0.2,0.1,0.4,0.3,0.5,0.4C76.1,0.8,76.1,1,76.2,1.2C76.2,1.2,76.2,1.2,76.2,1.2L76.2,1.2z"/>
			<path class="st2" d="M61.2,3C61.1,3,61,3,60.9,3.1c13.8-2.7,13.8-2.7,14.3-2.9c0,0,0,0,0-0.1c0,0-0.1,0-0.1,0c0,0,0,0.1,0,0.1
				C74.9,0.2,74.9,0.2,61.2,3C61.2,2.9,61.2,3,61.2,3L61.2,3z"/>
			<path class="st2" d="M63.8,10.6c0,0,0,0.1,0.1,0.1C71.8,5.7,73.9,4,75.7,2.2c0,0-0.1-0.1-0.1-0.1C73.9,3.8,72.8,4.8,63.8,10.6
				C63.8,10.6,63.8,10.6,63.8,10.6L63.8,10.6z"/>
			<path class="st2" d="M61.2,11c0.1-0.1,0.2-0.1,0.2-0.2c-1.8-2.2-3.7-4.5-1.8-7.2c-0.4,0.1-1.5,0.9-0.9,3.7
				C59,8.1,59.8,9.4,61.2,11L61.2,11z"/>
			<path class="st2" d="M60.9,3.1c-0.1,0-0.1,0.1-0.2,0.1c3.8-0.3,14.7-1.3,14.8-1.4c0,0,0-0.1,0-0.1C70.6,2.2,65.7,2.6,60.9,3.1
				C60.9,3.1,60.9,3.1,60.9,3.1L60.9,3.1z"/>
			<path class="st2" d="M55.3,144.1c-5.9-4.8-16.9-13.9-24.8-38.1c-0.1,0-0.1,0-0.2,0C33.9,117,40.3,133,55.3,144.1L55.3,144.1z"/>
			<path class="st2" d="M10.5,78c0,0.1,0,0.3,0.1,0.4c8.2-4.3,13.7-6.7,27.9-11.6c0-0.2,0-0.3-0.1-0.5C24.5,71,18.3,73.6,10.5,78
				C10.5,78,10.5,78,10.5,78L10.5,78z"/>
			<path class="st2" d="M29.7,100.7c0.1,0,0.1,0.1,0.2,0.1c2.3-11.7,3.8-17.6,9.9-32.2c-0.1-0.1-0.3-0.1-0.4-0.2
				C33.2,83.4,31.4,90.2,29.7,100.7C29.7,100.7,29.7,100.7,29.7,100.7L29.7,100.7z"/>
			<path class="st2" d="M40.5,62.8c0.1,0,0.2,0,0.3,0c0.1-13.7,0.4-19.6,3.1-31.4c-0.1,0-0.2,0-0.4,0C41.3,41.5,40.4,48.1,40.5,62.8
				L40.5,62.8z"/>
			<path class="st2" d="M38.6,64.3c0.1-0.2,0.1-0.2,0.2-0.4C31.1,57.6,24.8,52.1,20,44.4c-0.1,0.2-0.1,0.2-0.3,0.4
				C23.3,50.2,26.8,54.8,38.6,64.3L38.6,64.3z"/>
			<path class="st2" d="M62.3,149.3c0.3,0.1,0.3,0.1,0.3,0.1c-2.4-0.8-4.3-1.5-5.3-3.5c-0.1,0-0.2-0.1-0.3-0.2
				C57.8,147,58.3,148,62.3,149.3C62.2,149.3,62.3,149.3,62.3,149.3L62.3,149.3z"/>
			<path class="st2" d="M55.2,144.3c-8.3-4.8-13.4-7.9-22.9-15.8c0,0,0,0.1,0,0.1C37.3,132.8,43.6,138.1,55.2,144.3L55.2,144.3z"/>
			<path class="st2" d="M29.4,124.9c0.1,0,0.2,0.1,0.2,0.1c-1.5-6.7-1.9-10.1-0.4-19.4c-0.2-0.1-0.2-0.1-0.4-0.2
				C27.7,113.5,27.6,117.7,29.4,124.9C29.4,124.9,29.4,124.9,29.4,124.9L29.4,124.9z"/>
			<path class="st2" d="M27.5,101.6c0-0.1,0.1-0.2,0.1-0.3c-7-7-12-12-17.2-20.4c-0.1,0.2-0.1,0.2-0.1,0.3
				C13.7,86.5,17.2,91.8,27.5,101.6L27.5,101.6z"/>
			<path class="st2" d="M60.8,2.7c0.1,0,0.2-0.1,0.3-0.1c1.5-0.5,3.4-1.4,4.9-1.7c1.3-0.3,3.1-0.5,4.5-0.7
				C64.9,0.6,61.8,2.2,60.8,2.7L60.8,2.7z"/>
			<path class="st2" d="M44.5,27.1c0.1,0,0.2-0.1,0.3-0.1c1.6-7.3,3.5-16.4,13.7-22.9C58.4,4.1,47.7,8.2,44.5,27.1L44.5,27.1z"/>
			<path class="st2" d="M44.2,7.4c-0.1,0.1-0.2,0.1-0.3,0.2c3.8-1.2,6.7-2.1,14.7-4c0.1,0,0.2-0.1,0.3-0.1
				C51.1,5.3,48.1,6.2,44.2,7.4C44.2,7.4,44.2,7.4,44.2,7.4L44.2,7.4z"/>
			<path class="st2" d="M21,41.7c0,0.1,0,0.2,0,0.3c5.1-3.1,10.4-6.3,21.3-11.7c0-0.2,0-0.2,0-0.4C36.2,33,28.8,36.7,21,41.7
				C21,41.7,21,41.7,21,41.7L21,41.7z"/>
			<path class="st2" d="M43.1,28.1c0.1-0.1,0.2-0.2,0.3-0.3c-6-7.3-8.2-12.8-1.3-19.2c0,0-4.9,2.9-4.6,8.9
				C37.8,21.7,41.1,25.7,43.1,28.1L43.1,28.1z"/>
			<path class="st2" d="M11.3,34.6c1.2-1.7,2.8-4,4.2-5.7c0-0.1,0.1-0.1,0.1-0.2c-1.2,1.5-2.7,3.5-3.8,5.1
				C11.6,34.1,11.5,34.3,11.3,34.6L11.3,34.6z"/>
			<path class="st2" d="M16.9,27L16.9,27c0.1-0.1,0.2-0.2,0.3-0.3c0,0,0,0,0,0C17.1,26.8,17,26.9,16.9,27L16.9,27z"/>
			<path class="st2" d="M60.9,149c-7.3-2.3-18.4-5.7-29.2-20.2c-0.1,0-0.2,0-0.2,0C37.7,136.6,45.1,144.6,60.9,149
				C60.9,149,60.9,149,60.9,149L60.9,149z"/>
			<path class="st2" d="M61.3,149.1c-10.4-2.9-12.8-3.6-21.7-8C39.6,141.2,46.6,145.6,61.3,149.1L61.3,149.1z"/>
			<path class="st2" d="M2.2,54.7C3.5,51.8,5.5,49,17.3,44c0-0.2,0.1-0.2,0.1-0.4C8.9,47.3,3.9,50.1,2.3,54.2
				C2.3,54.4,2.2,54.6,2.2,54.7L2.2,54.7z"/>
			<path class="st2" d="M9.2,76c0,0,0.1,0,0.2,0.1c1.2-8.8,2.4-17.1,8.5-30.3c-0.1,0-0.2-0.1-0.2-0.1C14.4,53.1,10.7,61.6,9.2,76
				C9.2,76,9.2,76,9.2,76L9.2,76z"/>
			<path class="st2" d="M18.1,42.1c0.1-0.2,0.1-0.2,0.3-0.4c-2.7-4.4-4.5-8.2-1.6-14C15.6,29,12.5,33.8,18.1,42.1L18.1,42.1z"/>
			<path class="st2" d="M19.3,40.8c0.1,0,0.2-0.1,0.3-0.2c1.8-7.7,4.9-20.7,21.3-31.5C40.7,9.2,24.2,17.4,19.3,40.8L19.3,40.8z"/>
			<path class="st2" d="M28.3,124.7c-6.5-9.2-15.4-21.9-18.7-42.7c-0.1,0-0.1,0-0.2,0.1C10.9,90.1,14,106.8,28.3,124.7L28.3,124.7z"
				/>
			<path class="st2" d="M36.2,139c0.1,0.1,0.2,0.1,0.3,0.2c-4.1-4.1-5.2-6.1-6-10.9c-0.1-0.1-0.2-0.1-0.3-0.3
				C30.9,132.7,31.8,134.7,36.2,139C36.1,139,36.1,139,36.2,139L36.2,139z"/>
			<path class="st2" d="M4.2,101.9c3.6,7.7,8.4,13.8,24.1,23.8c0-0.1,0-0.2-0.1-0.3c-0.9-0.9-2.6-1.7-3.7-2.4
				C9.2,113.2,5.7,105.2,4,101.4C4,101.6,4.1,101.7,4.2,101.9L4.2,101.9z"/>
			<path class="st2" d="M0,65.1c0,3-0.1,6.7,7.7,13.1c0-0.2,0-0.3,0.1-0.5c-4.5-4-8.2-7.7-7.7-13.1C0.1,64.8,0,65,0,65.1L0,65.1z"/>
			<path class="st2" d="M1.7,94.1c-0.4-3.2-1-6.9,6.2-13.7c0-0.2-0.1-0.3-0.1-0.5c-3.3,3.4-7.5,7.5-6.3,13.7
				C1.6,93.7,1.6,93.9,1.7,94.1L1.7,94.1z"/>
			<path class="st2" d="M74.7,150.7c-0.1,0-0.2,0-0.3,0c0,0,0,0,0,0c-0.1,0-0.1,0-0.2,0c0,0-0.1,0-0.1,0c0.1,0,0.2,0,0.3,0
				C74.5,150.7,74.6,150.7,74.7,150.7L74.7,150.7z"/>
			<path class="st2" d="M74.1,150.7c-1.1,0-4.2-0.2-10.1-1C64.8,149.8,70.3,150.5,74.1,150.7L74.1,150.7z"/>
			<path class="st2" d="M49.7,146.4c2.5,0.8,5.5,1.8,12.9,3c-11-2.3-11-2.3-13.4-3.2C49.4,146.3,49.5,146.4,49.7,146.4L49.7,146.4z"
				/>
			<path class="st2" d="M70.8,150.6c-1.8-0.1-4.7-0.3-6.8-0.9c-0.1,0-0.3-0.1-0.4-0.1c1,0.3,2.5,0.7,6.7,0.9
				C70.4,150.6,70.6,150.6,70.8,150.6L70.8,150.6z"/>
			<path class="st2" d="M9.1,112.4c3.6,5.8,10.4,16.6,26.1,26.3c-1.1-1.2-3.2-2.2-4.6-3.1c-2.3-1.5-14-9.7-22-24.2
				C8.7,111.7,8.9,112.1,9.1,112.4L9.1,112.4z"/>
			<path class="st2" d="M43.1,143.8c-2.2-1.1-3.4-1.7-4.9-3.1c-0.1-0.1-0.3-0.2-0.4-0.2c1.6,1.3,2.4,1.9,4.8,3.1
				C42.8,143.6,43,143.7,43.1,143.8L43.1,143.8z"/>
			<path class="st2" d="M27.1,133.7c3,2.3,4.4,3.3,9,5.7c-0.1-0.1-0.2-0.2-0.3-0.2c-0.9-0.5-2.1-1.1-3-1.6c-1.8-1-4-2.5-6.1-4.2
				C26.8,133.5,26.9,133.6,27.1,133.7L27.1,133.7z"/>
			<path class="st2" d="M72.7,0c-0.5,0-0.7,0-0.9,0c1,0,1,0,1.4-0.1C73.1,0,72.9,0,72.7,0L72.7,0z"/>
			<path class="st2" d="M58.5,1.8c-6.1,1.5-9.3,2.5-14.6,5.5c2-0.9,3.9-2.1,6-2.9c3.5-1.3,4.5-1.6,9.2-2.7
				C58.9,1.7,58.7,1.7,58.5,1.8L58.5,1.8z"/>
			<path class="st2" d="M45.3,6.8c0,0-0.1,0.1-0.1,0.1c6.4-2.6,13.6-5.6,24.6-6.7c0.1,0,0.1,0,0.2,0C63.8,1,56.8,1.8,45.3,6.8
				C45.3,6.8,45.3,6.8,45.3,6.8L45.3,6.8z"/>
			<path class="st2" d="M43.2,6.9C43,7,42.6,7.2,42.5,7.4c-0.1,0.1,0,0.3,0.1,0.5c0.1-0.1,0.3-0.1,0.4-0.2c-0.1-0.2-0.1-0.4,0-0.6
				c0.1-0.2,0.5-0.3,0.7-0.4C43.5,6.8,43.3,6.8,43.2,6.9L43.2,6.9z"/>
			<path class="st2" d="M20,23.5l-1.9,2.1c0.4-0.4,0.4-0.4,2.3-2.6C20.3,23.2,20.2,23.3,20,23.5L20,23.5z"/>
			<path class="st2" d="M19,25c0,0-0.1,0.1-0.1,0.1c4.8-4.7,10.3-10,21.6-15.9c0,0,0.1-0.1,0.1-0.1C34.6,12.3,27.3,16.4,19,25
				C19,24.9,19,24.9,19,25L19,25z"/>
			<path class="st2" d="M128.9,24.1c1.2,1.3,2,2.1,2.2,2c0.1-0.4-3.3-4.1-3.9-4.2c0,0,0,0,0,0C127.1,22.1,127.7,22.8,128.9,24.1
				L128.9,24.1z"/>
			<path class="st2" d="M126.4,128.9c-1.7,1.7-1.6,1.9-1.6,1.9c0.5,0,4.3-3.8,4.1-4c0,0,0,0,0,0C128.7,126.8,128.2,127,126.4,128.9
				L126.4,128.9z"/>
			<path class="st2" d="M99,146.3c-2.3,0.8-2.3,0.8-2.4,0.9c0.4,0.1,4.9-1.6,5.4-1.9c0,0,0,0,0,0C101.8,145.3,101.8,145.3,99,146.3
				L99,146.3z"/>
			<path class="st2" d="M92.8,2.4c2.8,0.8,2.8,0.8,2.9,0.8c-0.2-0.2-4.8-1.4-5.5-1.5c0,0,0,0,0.8,0.2C91.2,2,92,2.2,92.8,2.4
				L92.8,2.4z"/>
			<path class="st2" d="M143.8,60.2c0.5,2.1,1.3,3,1.7,2.4c0.6-0.9-0.3-5.6-1.5-5.7C143.3,57,143.5,58.8,143.8,60.2L143.8,60.2z"/>
			<path class="st2" d="M111,137c-1.3,1.1-1.4,1.5-1.1,1.6c0.9,0.1,4.7-2.8,4.3-3.3c0,0-0.1-0.1-0.2-0.1
				C113.4,135.2,112.2,135.9,111,137L111,137z"/>
			<path class="st2" d="M136.6,86.5c-0.1,2.3,1,3.1,1.9,2.2c1.4-1.3,1.7-5.5,0-5.6C137.5,83.1,136.7,84.6,136.6,86.5L136.6,86.5z"/>
			<path class="st2" d="M123.7,38.8c1.1,2.5,3.1,3.2,3.5,2c0.5-1.2-1.2-4.4-3-4.5C123.3,36.3,123.1,37.3,123.7,38.8L123.7,38.8z"/>
			<path class="st2" d="M120.1,112.2c-0.7,2,0.2,2.8,1.5,2.2c1.9-0.9,3.1-4.3,1.7-4.8c-0.2-0.1-0.3-0.1-0.4-0.1
				C121.8,109.5,120.7,110.6,120.1,112.2L120.1,112.2z"/>
			<path class="st2" d="M94.8,6c1.8,1.1,2.7,1.2,2.7,0.9c0-0.5-3-2.1-4-2.2c-0.1,0-0.3,0,0.1,0.4C93.8,5.4,94.2,5.7,94.8,6L94.8,6z"
				/>
			<path class="st2" d="M81.2,150c-0.6,0.1-1.2,0.2-1.7,0.3c0.4,0,3.7-0.5,4.2-0.8c0,0,0,0,0,0C83.6,149.6,83.6,149.6,81.2,150
				L81.2,150z"/>
			<path class="st2" d="M92.1,143.7c-0.8,0.7-1,1.1-0.6,1.1c1.1,0.1,3.9-1.9,3.4-2.4c0,0-0.1-0.1-0.3-0.1
				C94,142.4,93.1,142.9,92.1,143.7L92.1,143.7z"/>
			<path class="st2" d="M74.7,150.7c0.1,0,0.2,0,0.3,0l0,0C74.9,150.7,74.8,150.7,74.7,150.7L74.7,150.7L74.7,150.7z"/>
			<path class="st2" d="M96.7,64.8c0.2,3.1,3.4,3.7,4.8,2.2c1.3-1.4,0.9-5-2.2-5.2C97.7,61.8,96.6,63,96.7,64.8L96.7,64.8z"/>
			<path class="st2" d="M75.1,0c0.1,0,0.3,0,0.4,0.1c0.2,0,0.4,0.1,0.4,0.1c0-0.1-0.6-0.2-1.2-0.2l0,0C74.7,0,74.9,0,75.1,0L75.1,0z
				"/>
			<path class="st2" d="M83.9,94.9c-0.1,2.9,3.1,3.5,4.8,2.1c1.6-1.4,1.3-4.8-1.5-5c-0.1,0-0.2,0-0.2,0C84.8,92.1,84,93.6,83.9,94.9
				L83.9,94.9z"/>
			<path class="st2" d="M82,36.5c0.3,2.5,3.5,2.9,4.6,1.5c1-1.2,0.4-4-2.3-4.2c0,0,0,0,0,0s0,0,0,0c0,0,0,0,0,0c0,0,0,0,0,0s0,0,0,0
				c0,0,0,0,0,0c0,0,0,0,0,0c0,0,0,0,0,0C82.8,33.9,81.8,34.9,82,36.5L82,36.5z"/>
			<path class="st2" d="M76.4,148.1c-0.2,0.7,0.4,0.9,1,0.5c0.6-0.3,1-1.2,0.4-1.4c-0.1,0-0.2,0-0.2,0
				C77.1,147.2,76.5,147.5,76.4,148.1L76.4,148.1z"/>
			<path class="st2" d="M75.4,1.7c0.1,0.4,0.4,0.7,0.9,0.7h0h0c0,0,0,0,0,0h0h0c0,0,0,0,0,0h0h0c0.6,0,0.6-0.5,0.2-1
				c-0.1-0.1-0.4-0.3-0.7-0.3C75.3,1.2,75.4,1.7,75.4,1.7L75.4,1.7z"/>
			<path class="st2" d="M76.6,131.4c0,1.9,2.3,2.4,3.5,1.1c1.1-1.1,0.8-3.2-1.3-3.2C77.1,129.4,76.6,130.4,76.6,131.4L76.6,131.4z"
				/>
			<path class="st2" d="M60.6,12c-0.5,1.3,0.6,1.6,1.6,1.3c1.4-0.5,2.2-2.4,1.3-2.9c-0.2-0.1-0.3-0.1-0.5-0.1
				C61.8,10.3,60.9,11.2,60.6,12L60.6,12z"/>
			<path class="st2" d="M74.3,150.7c0.1,0,0.2,0,0.4,0c-0.5,0-0.8,0-1.3-0.1c-0.1,0-0.2,0-0.2,0c0,0,0,0,0,0
				C73.2,150.6,73.7,150.7,74.3,150.7L74.3,150.7z"/>
			<path class="st2" d="M38.3,65.8c-0.1,2.9,2.6,3.6,4.1,2.3c1.5-1.4,1.6-5.1-1.4-5.3C39.8,62.8,38.4,63.8,38.3,65.8L38.3,65.8z"/>
			<path class="st2" d="M42.4,29.3c-0.8,2,0.8,2.6,2.1,2c1.9-0.8,2.7-3.7,1.3-4.2c-0.2-0.1-0.4-0.1-0.5-0.1
				C44.1,26.9,42.9,27.9,42.4,29.3L42.4,29.3z"/>
			<path class="st2" d="M56.4,145.3c1.3,0.8,2.7,1.2,2.6,0.9c-0.1-0.4-2.6-2.1-3.6-2.1c-0.3,0-0.3,0.2,0,0.5
				C55.6,144.8,56.1,145.1,56.4,145.3L56.4,145.3z"/>
			<path class="st2" d="M27.7,103.6c0.9,2.4,3.3,3,4,1.5c0.6-1.4-0.5-4.5-2.7-4.6C27.4,100.6,27.2,102.2,27.7,103.6L27.7,103.6z"/>
			<path class="st2" d="M59.3,3.3c-1.1,0.5-1.5,0.8-1.3,0.9c0.4,0.1,4-1.4,4-1.7c0,0-0.1,0-0.1,0C61.5,2.4,60.3,2.8,59.3,3.3
				L59.3,3.3z"/>
			<path class="st2" d="M29.1,127c1.4,1.7,3,2.4,3.1,1.5c0.1-1-2.1-3.8-3.6-3.9C27.9,124.6,27.9,125.5,29.1,127L29.1,127z"/>
			<path class="st2" d="M17.6,43.2c-0.8,2.1-0.1,3,1.1,2.5c1.8-0.8,3-4.6,1.7-5.1c-0.1,0-0.2,0-0.3,0C19.2,40.5,18.2,41.6,17.6,43.2
				L17.6,43.2z"/>
			<path class="st2" d="M72,0.1c-1.3,0.1-2.3,0.2-2.5,0.2C71.2,0.2,72.9,0,74.7,0C73.8,0,72.9,0,72,0.1L72,0.1z"/>
			<path class="st2" d="M63.2,149.6c1.4,0.3,2.6,0.4,2.8,0.4c0,0-4.9-1-5.1-1C61,149.1,62.5,149.4,63.2,149.6L63.2,149.6z"/>
			<path class="st2" d="M7.7,79.2c0.2,2.7,1.5,3.5,2.2,2.6c1.1-1.3,0.7-5.7-0.9-5.8C8,76,7.6,77.6,7.7,79.2L7.7,79.2z"/>
			<path class="st2" d="M42.3,8c-0.9,0.5-1.9,1.1-1.9,1.2c0.2,0.2,4.8-2.2,5-2.6c0,0,0,0,0,0C45,6.7,43.6,7.3,42.3,8L42.3,8z"/>
			<path class="st2" d="M37.2,140.1c1.2,0.7,2.6,1.4,2.7,1.4c-0.1-0.3-4.3-2.9-4.8-3c0,0,0,0,0,0C35,138.7,36.1,139.5,37.2,140.1
				L37.2,140.1z"/>
			<path class="st2" d="M17,26.9c-0.6,0.7-1.7,2-1.7,2.2c0.2,0,3.7-4.1,3.7-4.4c0,0,0,0,0,0C18.9,24.8,17.9,25.9,17,26.9L17,26.9z"
				/>
		</g>
		<g>
			<path class="st2" d="M74.7,150.7c0,0,0.1,0,0.1,0C74.7,150.7,74.7,150.7,74.7,150.7L74.7,150.7z"/>
			<path class="st2" d="M3.4,56.3c0,0.1-0.1,0.1-0.1,0.2c1.5-8.6,2.6-12.7,8.1-21.9c0.2-0.3,0.3-0.5,0.5-0.8
				C6.5,42.7,5.1,46.4,3.4,56.3C3.4,56.3,3.4,56.3,3.4,56.3L3.4,56.3z"/>
			<path class="st2" d="M16.9,27c0.1-0.1,0.2-0.2,0.3-0.4c0.4-0.1,0.9-0.3,7.5-0.6c-0.1,0.1-0.2,0.2-0.3,0.4
				C20.7,26.6,17.3,26.8,16.9,27L16.9,27z"/>
			<path class="st2" d="M2.7,57.9c0,0.1-0.1,0.3-0.1,0.4c-0.6-1.8-0.7-2.1-0.4-3.6c0-0.2,0.1-0.3,0.1-0.5
				C2.1,56.1,2.1,56.3,2.7,57.9C2.7,57.9,2.7,57.9,2.7,57.9L2.7,57.9z"/>
			<path class="st2" d="M4.2,101.9c-0.1-0.2-0.1-0.4-0.2-0.5c-0.3-1-0.7-2.3-0.9-3.2C3.5,99.4,3.7,100.7,4.2,101.9L4.2,101.9z"/>
			<path class="st2" d="M0,65.1c0-0.2,0-0.4,0.1-0.5c0.7-2.6,0.8-2.9,2.2-5c0,0.2,0,0.3-0.1,0.5c-0.3,0.6-0.9,1.4-1.2,2
				C0.5,62.9,0.2,64.2,0,65.1L0,65.1z"/>
			<path class="st2" d="M2.3,95.6c0,0.1,0.1,0.3,0.1,0.4c-0.2-0.6-0.5-1.3-0.7-1.9c0-0.2-0.1-0.3-0.1-0.5L2.3,95.6
				C2.3,95.6,2.3,95.6,2.3,95.6L2.3,95.6z"/>
			<path class="st2" d="M74.6,150.7C74.6,150.7,74.6,150.7,74.6,150.7c0,0-0.1,0-0.2,0C74.4,150.7,74.5,150.7,74.6,150.7
				C74.5,150.7,74.6,150.7,74.6,150.7L74.6,150.7z"/>
			<path class="st2" d="M49.7,146.4c-0.2-0.1-0.3-0.1-0.5-0.2c-0.6-0.2-1.4-0.5-2-0.8C48.1,145.8,48.9,146.1,49.7,146.4L49.7,146.4z
				"/>
			<path class="st2" d="M74,150.7c0.1,0,0.3,0,0.4,0c-1.5,0-2,0-3.7-0.1c-0.2,0-0.3,0-0.5,0C71.9,150.6,72.2,150.7,74,150.7
				C73.9,150.7,74,150.7,74,150.7L74,150.7z"/>
			<path class="st2" d="M9.1,112.4c-0.2-0.3-0.4-0.7-0.5-1c-3-6.1-3.3-6.8-5-12.2c0,0,0.1,0.1,0.1,0.1c0.6,1.5,1.2,3.5,1.7,5
				C6.1,106.9,7.8,110,9.1,112.4L9.1,112.4z"/>
			<path class="st2" d="M45.5,144.8c0.1,0.1,0.2,0.1,0.4,0.2c-0.8-0.3-1.9-0.8-2.7-1.1c-0.2-0.1-0.3-0.1-0.5-0.2
				C43.5,143.9,44.6,144.4,45.5,144.8C45.4,144.7,45.5,144.7,45.5,144.8L45.5,144.8z"/>
			<path class="st2" d="M27.1,133.7c-0.1-0.1-0.3-0.2-0.4-0.4c-2.6-2.4-3.9-3.6-5.5-6.4c0.1,0.1,0.2,0.2,0.3,0.3
				c0.5,0.6,0.9,1.5,1.3,2.1C22.9,129.5,24,131.2,27.1,133.7L27.1,133.7z"/>
			<path class="st2" d="M72.7,0c0.2,0,0.3,0,0.5,0c0.2,0,0.4,0,0.5,0C73.4,0,73.1,0,72.7,0L72.7,0z"/>
			<path class="st2" d="M58.5,1.8c0.2,0,0.4-0.1,0.6-0.1c4.8-0.9,7-1.3,12.9-1.6C65.6,0.3,60.8,1.3,58.5,1.8L58.5,1.8z"/>
			<path class="st2" d="M43.2,6.9c0.1-0.1,0.3-0.1,0.4-0.2c0.9-0.3,2.1-0.8,6.6-1.5c-0.1,0.1-0.3,0.1-0.4,0.2
				c-0.4,0.1-1,0.2-1.5,0.2C48,5.7,44.6,6.2,43.2,6.9L43.2,6.9z"/>
			<path class="st2" d="M20,23.5c0.1-0.2,0.3-0.3,0.4-0.5c3.6-3.5,11.2-10.7,28.5-17.2C47.8,6.5,46,7,44.8,7.6
				c-3.4,1.4-8.7,4-11.5,5.8C26.3,17.6,23,20.4,20,23.5L20,23.5z"/>
			<path class="st2" d="M52.6,4.3c-0.1,0-0.2,0-0.2,0.1c5.5-2.3,9.1-3.6,18.7-4.3c0.1,0,0.2,0,0.3,0C64.9,0.6,60.2,1,52.6,4.3
				C52.6,4.3,52.6,4.3,52.6,4.3L52.6,4.3z"/>
			<path class="st2" d="M51.2,5.2c0.4-0.2,0.6-0.3,12.8-0.8c-0.1,0-0.1,0.1-0.2,0.1C59.7,4.8,55.5,4.9,51.2,5.2L51.2,5.2z"/>
			<path class="st2" d="M71.9,150.6c0,0,0.1,0,0.1,0c-6.7-0.5-13-1-22.6-4.4l-0.1,0C55.8,148.3,62,150.2,71.9,150.6
				C71.9,150.6,71.9,150.6,71.9,150.6L71.9,150.6z"/>
			<path class="st2" d="M44.3,144.1c-0.1,0-11.8-4.8-21.8-16.1c1.5,0.8,2.7,2.7,3.9,3.9C26.6,132.3,33.3,139.1,44.3,144.1
				L44.3,144.1z"/>
			<path class="st2" d="M46.7,145.1c-0.5-0.2-0.6-0.3-0.8-0.6c-0.1-0.2-0.2-0.6-0.2-0.8c0.1-0.4,0.8-0.9,1.4-1.3
				c0.1,0.1,0.2,0.1,0.4,0.2c-0.8,0.5-1.2,0.8-1.3,1.3C46,144.5,46.3,144.8,46.7,145.1L46.7,145.1z"/>
			<path class="st2" d="M2.2,94.1C0.8,86.6-1,77.4,2.3,61.7C0.7,70.8-0.8,79.5,2.2,94.1L2.2,94.1z"/>
			<path class="st2" d="M4,56.5C4,56.4,7.5,44.3,23.8,28c0,0,0,0.1,0,0.1C16,36.3,9.6,43.6,4,56.5L4,56.5z"/>
			<path class="st2" d="M25.5,62.4c0,0.1,0,0.2-0.1,0.4c-3.6-0.3-15.7-1.6-21.8-3.4c0-0.2,0.1-0.3,0.1-0.5c0,0,0,0,0,0c0,0,0,0,0,0
				c0,0,0,0,0,0c0,0,0,0,0,0c0,0,0,0,0,0c0,0,0,0,0,0c0,0,0,0,0,0c0,0,0,0,0,0C7.6,59.9,12.4,60.8,25.5,62.4
				C25.5,62.3,25.5,62.3,25.5,62.4L25.5,62.4z"/>
			<path class="st2" d="M45.6,141.4C45.7,141.4,45.7,141.5,45.6,141.4c-4.5-2.1-14-6.6-23-13.8c-0.1-0.1-0.1-0.2-0.2-0.3
				C26.8,130.6,33.3,135.6,45.6,141.4C45.6,141.4,45.6,141.4,45.6,141.4L45.6,141.4z"/>
			<path class="st2" d="M45.5,126.6c0,0.1,0.1,0.2,0.1,0.3c-9.4,0-23.9-0.6-24-0.6c-0.1-0.1-0.2-0.2-0.3-0.4
				C23.8,126,27.9,126.2,45.5,126.6C45.4,126.6,45.5,126.6,45.5,126.6L45.5,126.6z"/>
			<path class="st2" d="M18.9,124c-4.4-5.1-10.4-12.1-15.1-24.4l0-0.1C6.5,105.9,9.9,113.9,18.9,124C18.9,124,18.9,124,18.9,124
				L18.9,124z"/>
			<path class="st2" d="M20.6,125.2c-0.1-0.1-6.8-8.6,13.5-25.3c0.1,0.1,0.1,0.2,0.2,0.3C26.8,107,17.4,115.4,20.6,125.2L20.6,125.2
				z"/>
			<path class="st2" d="M2.8,95.6c0-0.1-3.7-11.9,22.6-31.5c0,0.1,0.1,0.2,0.1,0.3C16.1,71.9,3.1,82.3,2.8,95.6L2.8,95.6z"/>
			<path class="st2" d="M33.6,98.4c0,0.1,0,0.2,0,0.3c-10.6-0.1-26.9-1-30.4-1.6c0-0.2-0.1-0.3-0.1-0.5C6,97,10.7,97.5,33.6,98.4
				C33.6,98.4,33.6,98.4,33.6,98.4L33.6,98.4z"/>
			<path class="st2" d="M133.1,122.9c1-1.7,1.9-3.2,0.8-5.8c0.1-0.1,0.2-0.3,0.3-0.4c0.5,1.8,1,3.3-0.8,5.8
				C133.3,122.6,133.2,122.8,133.1,122.9L133.1,122.9z"/>
			<path class="st2" d="M74.7,150.7C74.7,150.7,74.6,150.7,74.7,150.7C74.6,150.7,74.6,150.7,74.7,150.7L74.7,150.7L74.7,150.7z"/>
			<path class="st2" d="M72.7,150.7c-14.9-0.4-21.2-5.1-24.1-7.4c0.1,0,0.2,0.1,0.2,0.1c0.8,0.4,1.7,1.3,2.4,1.8
				c1.6,1.2,4,2.3,5.9,2.8C63.2,149.9,65.1,150.2,72.7,150.7L72.7,150.7z"/>
			<path class="st2" d="M74.9,150.7c1.2,0,4.2-0.2,10.7-1.2C85.3,149.6,79.4,150.5,74.9,150.7L74.9,150.7z"/>
			<path class="st2" d="M26.9,60.2c-0.1,0.1-0.2,0.2-0.3,0.2c-2.3-7.7-5.9-19.2-1.7-32.2c0.1-0.1,0.2-0.1,0.3-0.2
				C22.6,37.3,22.1,45.5,26.9,60.2C26.9,60.2,26.9,60.2,26.9,60.2L26.9,60.2z"/>
			<path class="st2" d="M27.4,24c0,0-0.1,0-0.1,0c4.3-5.2,9.7-11.7,21.1-17.8l0.1,0C42.5,9.7,35.7,13.5,27.4,24
				C27.4,24,27.4,24,27.4,24L27.4,24z"/>
			<path class="st2" d="M47.8,22.6c-0.1,0.1-0.2,0.1-0.2,0.2c-2.1-3.8-6-10.8,2-16.9c0.1,0,0.2-0.1,0.4-0.1
				C47,8.3,42,12.5,47.8,22.6C47.8,22.6,47.8,22.6,47.8,22.6L47.8,22.6z"/>
			<path class="st2" d="M26.9,26.2c0.1-0.1,0.1-0.2,0.2-0.3c2.8-0.4,5.5-0.8,19.6-1.9c-0.1,0.2-0.1,0.2-0.1,0.3
				C35.8,25.2,32.3,25.6,26.9,26.2L26.9,26.2z"/>
			<path class="st2" d="M47.2,141.6c0,0-4.6-3.4-0.6-13.5c0.1,0.1,0.2,0.2,0.3,0.3C45,133.2,44.2,136.6,47.2,141.6L47.2,141.6z"/>
			<path class="st2" d="M73.9,150.7c0,0,0.1,0,0.1,0c-5.4-0.4-11.3-1.3-24.2-7.2c0,0-0.1-0.1-0.1-0.1
				C57.5,146.9,65.1,150,73.9,150.7C73.9,150.7,73.9,150.7,73.9,150.7L73.9,150.7z"/>
			<path class="st2" d="M70.7,149.6C70.7,149.7,70.8,149.7,70.7,149.6c-10.8-2.9-16.5-4.9-21.2-6.5c-0.1-0.1-0.2-0.1-0.2-0.2
				C53.9,144.5,59.6,146.6,70.7,149.6C70.7,149.6,70.7,149.6,70.7,149.6L70.7,149.6z"/>
			<path class="st2" d="M35.1,95.9c-0.1,0-0.1,0-0.2,0c-1.8-5-5.6-15.3-7.2-30.2c0.1,0,0.3-0.1,0.4-0.1C29,72.6,30.2,82.1,35.1,95.9
				C35.1,95.9,35.1,95.9,35.1,95.9L35.1,95.9z"/>
			<path class="st2" d="M28.8,60c-0.1,0-0.2-0.1-0.3-0.1c4.9-12,8.9-20.2,18.5-33.9c0,0,0.1,0,0.2,0.1C39.3,37.9,35,44.7,28.8,60
				L28.8,60z"/>
			<path class="st2" d="M69.8,69.1c-0.1,0-0.2,0.1-0.2,0.1C51.9,42.8,49.5,30.5,48.6,26c0.1-0.1,0.3-0.1,0.4-0.2
				C51.3,36.6,54.7,45,69.8,69.1C69.8,69.1,69.8,69.1,69.8,69.1L69.8,69.1z"/>
			<path class="st2" d="M68.3,71.1c0,0.1-0.1,0.3-0.1,0.4c-13.1-2.4-25.9-4.9-38.5-8c0-0.1,0.1-0.3,0.1-0.5
				C36.4,64.6,45.5,66.8,68.3,71.1C68.3,71,68.3,71.1,68.3,71.1L68.3,71.1z"/>
			<path class="st2" d="M50,22c-0.1,0-0.1,0-0.2-0.1c2.9-4.2,7.2-10.6,13.8-16.5c0,0,0.1,0,0.1,0C60.2,8.8,56.3,12.6,50,22L50,22z"
				/>
			<path class="st2" d="M50.5,23.7c0-0.1,0.1-0.2,0.1-0.3c9.7-2.2,19.4-4.1,29-6.3c0,0.1,0.1,0.2,0.1,0.3
				C70,19.5,60.3,21.5,50.5,23.7L50.5,23.7z"/>
			<path class="st2" d="M37.8,97.3c-0.1-0.1-0.1-0.2-0.2-0.3c3.6-3.4,10.4-9.7,30.9-23.6c0.1,0.1,0.1,0.2,0.2,0.3
				C44.4,91.2,44.4,91.2,37.8,97.3L37.8,97.3z"/>
			<path class="st2" d="M70.6,149.4c-2.4-1.4-9.8-5.5-21.8-20.6c0.1,0,0.2-0.1,0.2-0.1C52.6,133.1,62.2,144.9,70.6,149.4
				C70.6,149.4,70.6,149.4,70.6,149.4L70.6,149.4z"/>
			<path class="st2" d="M46.3,124.6c0,0-0.1,0-0.2,0c-3.5-6.5-5.8-11.3-9.6-23.2c0.2,0,0.2,0,0.4,0
				C39.6,109.9,41.3,114.8,46.3,124.6C46.3,124.6,46.3,124.6,46.3,124.6L46.3,124.6z"/>
			<path class="st2" d="M73.4,101.9c0,0.1,0,0.2,0,0.2c-2.8-0.2-11.4-0.6-35-3c0-0.3,0-0.3,0-0.5C47.2,99.6,55,100.3,73.4,101.9
				C73.4,101.9,73.4,101.9,73.4,101.9L73.4,101.9z"/>
			<path class="st2" d="M72.1,135c0,0,0,0.1,0,0.1c-1.8-0.6-7.4-2.2-22.6-7.5c0-0.1,0-0.2-0.1-0.3C52.2,128.3,52.2,128.3,72.1,135
				C72.1,135,72.1,135,72.1,135L72.1,135z"/>
			<path class="st2" d="M74.1,134c-0.1,0-0.2,0-0.3,0c0.2-4.9,0.4-8.4,2-28.9c0.2,0,0.2,0,0.5,0C75.2,118.1,74.6,126,74.1,134
				L74.1,134z"/>
			<path class="st2" d="M48.5,125.7c-0.1-0.1-0.2-0.2-0.2-0.2c3.6-4.5,8.6-9.8,25.5-21.6c0.1,0.1,0.1,0.2,0.2,0.3
				C61,113.6,54.5,118.3,48.5,125.7L48.5,125.7z"/>
			<path class="st2" d="M79.8,15.7c0,0.1-0.1,0.1-0.1,0.2c-9.3-5.3-12.5-7.6-14.6-10.8c0.1,0,0.2-0.1,0.2-0.1
				C67.6,8.3,70.6,10.4,79.8,15.7C79.8,15.7,79.8,15.7,79.8,15.7L79.8,15.7z"/>
			<path class="st2" d="M73.4,0c0.5,0,1,0,1.5,0c0.1,0,0.1,0,0.2,0c-0.1,0-0.1,0-0.2,0c0,0-0.1,0-0.1,0c-0.1,0-0.1,0-0.2,0
				c0,0-0.1,0-0.1,0c-0.1,0-0.1,0-0.2,0c0,0-0.1,0-0.1,0c-0.1,0-0.1,0-0.2,0c-0.1,0-0.1,0-0.2,0c0,0-0.1,0-0.1,0c0,0-0.1,0-0.1,0
				c0,0-0.1,0-0.1,0C73.5,0,73.5,0,73.4,0C73.5,0,73.4,0,73.4,0L73.4,0z"/>
			<path class="st2" d="M64.5,4.1c-0.1,0-0.1,0.1-0.2,0.1c-1-0.8-3.7-2.8,3.5-3.8c1.7-0.2,3.5-0.3,4.5-0.4c0.2,0,0.3,0,0.5,0
				c-8.1,0.3-11.1,1.6-8.9,3.6C64.2,3.8,64.4,3.9,64.5,4.1C64.5,4.1,64.5,4.1,64.5,4.1L64.5,4.1z"/>
			<path class="st2" d="M66.1,4.2c0,0,0-0.1,0.1-0.1c0.7-0.3,1.6-0.5,2.3-0.7c5.9-1.8,7.5-2.4,7.6-3.1c-0.2-0.1-0.5-0.2-0.8-0.2
				c0.6,0,0.7,0.1,0.9,0.3C75.9,1,74.9,1.4,66.1,4.2L66.1,4.2z"/>
			<polygon class="st2" points="74.7,150.7 74.7,150.7 74.7,150.7 74.7,150.7 			"/>
			<path class="st2" d="M74.6,150.7c-0.4,0-1.6-0.1-1.6-0.1c-0.4-0.1-1-0.3-1.4-0.5c0.3,0.1,0.5,0.3,0.8,0.4
				C73,150.6,73.9,150.7,74.6,150.7L74.6,150.7z"/>
			<path class="st2" d="M120.3,15.4L120.3,15.4c-0.1-0.1-0.2-0.2-0.4-0.3C120,15.2,120.2,15.3,120.3,15.4L120.3,15.4z"/>
			<path class="st2" d="M76,0c0,0-0.3,0-0.7,0c-0.1,0-0.1,0-0.2,0c0,0,0.1,0,0.1,0c0,0,0.1,0,0.1,0c0,0,0.1,0,0.1,0c0,0,0,0,0,0
				c0,0,0,0,0.1,0c0,0,0,0,0,0c0,0,0,0,0,0c0,0,0,0,0,0C75.6,0,75.8,0,76,0L76,0z"/>
			<path class="st2" d="M71.1,149.5c0,0-3.6-1.5,1.8-12.3c0.1,0.1,0.1,0.1,0.3,0.1C71.3,141.3,68.7,146.7,71.1,149.5L71.1,149.5z"/>
			<path class="st2" d="M74.9,150.7c-0.1,0-0.1,0-0.2,0c0.2,0,0.4,0,0.5,0c0,0,0,0,0-0.1c-0.4-0.1-0.8-0.2-3.1-0.6
				c0,0-0.1,0-0.1-0.1c2.9,0.5,3.2,0.6,3.3,0.7C75.3,150.7,75.1,150.7,74.9,150.7C74.9,150.7,74.9,150.7,74.9,150.7L74.9,150.7z"/>
			<path class="st2" d="M82,15.2c-0.1,0-0.2-0.1-0.3-0.1c0.8-4.8,2.2-13.8-5.6-15C80,0.5,84.2,3.4,82,15.2L82,15.2z"/>
			<path class="st2" d="M75.8,150.7c3.4-0.3,6.3-1.4,9.8-3c0,0,0,0,0,0.1C81.5,149.4,79.5,150.3,75.8,150.7L75.8,150.7z"/>
			<path class="st2" d="M75.7,150.7C75.6,150.7,75.6,150.7,75.7,150.7c4.6-0.9,5.9-3.4-0.9-13.4c0.1-0.1,0.1-0.1,0.2-0.1
				C80.2,144.8,81.9,149.5,75.7,150.7C75.7,150.7,75.7,150.7,75.7,150.7L75.7,150.7z"/>
			<path class="st2" d="M75.6,135.1c0-0.1-0.1-0.1-0.1-0.2c3.6-1.8,3.6-1.8,18.2-8.4c0,0.1,0,0.2,0,0.2
				C87.7,129.6,81.6,132.3,75.6,135.1L75.6,135.1z"/>
			<path class="st2" d="M87.3,146.4c-0.1,0-0.1,0.1-0.2,0.1c-0.6-2.2-2-4.4-11.7-9.8c0.1-0.1,0.1-0.1,0.1-0.3
				C81.5,139.8,86.8,143.1,87.3,146.4C87.3,146.4,87.3,146.4,87.3,146.4L87.3,146.4z"/>
			<path class="st2" d="M72.2,68.9c-0.1,0-0.4-0.1-0.5-0.1c6.5-29.2,8.7-39,9.6-50.2c0.1,0,0.2,0,0.2,0
				C80.7,30.2,79.1,37.7,72.2,68.9L72.2,68.9z"/>
			<path class="st2" d="M142.3,108.6c-1.5,2.2-2.6,3.9-7.4,7c0.1-0.1,0.1-0.3,0.2-0.4c0.6-0.6,1.7-1.2,2.4-1.6
				c0.6-0.4,3.4-2.5,5.1-5.4C142.4,108.3,142.4,108.4,142.3,108.6L142.3,108.6z"/>
			<path class="st2" d="M73.6,69.7c-0.1-0.1-0.2-0.2-0.3-0.3c21-23.3,21-23.3,26.8-32.3c0.1,0.1,0.2,0.2,0.3,0.2
				C94.9,46.2,89.4,52.8,73.6,69.7L73.6,69.7z"/>
			<path class="st2" d="M95.1,124c-0.1,0.1-0.2,0.1-0.2,0.2c-3.5-5.1-6.3-9.1-16.7-19.7c0.2-0.1,0.2-0.2,0.4-0.3
				C85.6,111.5,90.3,116.5,95.1,124C95.1,124,95.1,124,95.1,124L95.1,124z"/>
			<path class="st2" d="M116.8,106c0,0.1-0.1,0.2-0.1,0.2c-12.6-0.9-25.1-2.4-37.6-3.4c0-0.1,0-0.3,0-0.5
				C94.5,103.7,105.1,104.7,116.8,106C116.8,106,116.8,106,116.8,106L116.8,106z"/>
			<path class="st2" d="M76,99.6c-0.1,0-0.3,0-0.4,0c-2.1-11.8-4-23.5-4.2-24.8c0.2,0,0.3,0,0.5-0.1C73.3,83.1,74.7,91.3,76,99.6
				C76.1,99.6,76,99.6,76,99.6L76,99.6z"/>
			<path class="st2" d="M118.7,74.5c0,0.1,0,0.2,0,0.3c-14.8-0.5-29.6-1.7-44.4-2.6c0-0.3,0-0.3,0-0.5
				C95.1,72.9,105.5,73.5,118.7,74.5C118.7,74.5,118.7,74.5,118.7,74.5L118.7,74.5z"/>
			<path class="st2" d="M78.9,101.2c-0.1-0.1-0.1-0.3-0.2-0.4c18-9.8,29.1-16.3,40.2-24.5c0,0.1,0.1,0.3,0.2,0.5
				C109,84,100.8,89.3,78.9,101.2L78.9,101.2z"/>
			<path class="st2" d="M99.5,33.5c-0.1,0.1-0.1,0.1-0.2,0.2c-5.5-5.2-11-10.2-16.5-15.4c0.1-0.1,0.1-0.1,0.2-0.2
				C88.6,23.3,94.1,28.3,99.5,33.5C99.6,33.5,99.6,33.5,99.5,33.5L99.5,33.5z"/>
			<path class="st2" d="M82.5,15.5c-0.1-0.1-0.1-0.1-0.3-0.2c2.7-5.2,4.5-9.5,0.9-13.1c0.7,0.3,2.4,2.2,2.2,4.8
				C85.2,9.9,84.3,12.1,82.5,15.5L82.5,15.5z"/>
			<path class="st2" d="M83.3,16.7c0-0.1-0.1-0.2-0.1-0.2c15.8-3.1,15.8-3.1,19.3-4.1c0.1,0.1,0.1,0.1,0.2,0.2
				C101.1,13.1,97.2,14.3,83.3,16.7L83.3,16.7z"/>
			<path class="st2" d="M126.6,28.4c-0.1,0-0.1,0-0.2,0c0,0,0,0,0,0c0,0,0,0,0,0h0c0,0,0,0,0,0c0,0,0,0,0,0h0c0,0,0,0,0,0h0
				c-8.1-11.2-15.8-18.8-31.2-24.9C107.4,8.4,116.5,14.1,126.6,28.4L126.6,28.4z"/>
			<path class="st2" d="M128.1,29.6c-0.1-0.1-0.2-0.2-0.3-0.3c-0.3-0.7-0.2-1.7-0.2-2.5c-0.2-2.1-1.4-5.6-6.1-10.2
				C123.3,17.9,127.7,22.1,128.1,29.6L128.1,29.6z"/>
			<path class="st2" d="M103.4,11.3c-0.1-0.1-0.2-0.1-0.3-0.2c-0.5-0.4-0.7-1.4-1-1.9c-1.5-2.9-6-5-8.1-6c1.7,0.5,4.7,2.4,5.2,2.8
				C101.8,8.3,101.9,8.5,103.4,11.3L103.4,11.3z"/>
			<path class="st2" d="M101.5,11C101.5,11,101.5,11,101.5,11c-6.9-3.9-10.6-5.9-17.4-8.6L84,2.2C90.4,4.8,94.4,6.8,101.5,11
				C101.5,10.9,101.5,11,101.5,11L101.5,11z"/>
			<path class="st2" d="M119.4,103.8L119.4,103.8L119.4,103.8L119.4,103.8L119.4,103.8L119.4,103.8L119.4,103.8
				C119.4,103.8,119.4,103.8,119.4,103.8c-0.1,0-0.2,0-0.3,0c1.3-7.9,2.2-13.6,1.8-25.8h0c0,0,0,0,0,0s0,0,0,0h0c0,0,0,0,0,0h0h0
				c0,0,0,0,0,0c0.2,0,0.2,0,0.4,0C121.5,86.1,121.6,92.5,119.4,103.8C119.4,103.8,119.4,103.8,119.4,103.8L119.4,103.8z"/>
			<path class="st2" d="M91.4,2.4c0.1,0,0.2,0.1,0.3,0.1c-2.7-0.5-9.9-2-16-2.4c-0.1,0-0.1,0-0.2,0C81.7,0.4,88.9,1.9,91.4,2.4
				C91.3,2.4,91.3,2.4,91.4,2.4L91.4,2.4z"/>
			<path class="st2" d="M81,1.2C81,1.2,81,1.2,81,1.2c-1.4-0.4-3.3-0.8-4.7-1.1c0,0,0,0-0.1,0C77.6,0.3,79.6,0.8,81,1.2
				C81,1.2,81,1.2,81,1.2L81,1.2z"/>
			<path class="st2" d="M91.9,2.6c0.2,0.1,0.2,0.1,0.4,0.1c-1.7-0.2-3.7-0.4-9-0.8c-0.1,0-0.2-0.1-0.2-0.1
				C85.2,1.9,88.9,2.2,91.9,2.6C91.9,2.6,91.9,2.6,91.9,2.6L91.9,2.6z"/>
			<path class="st2" d="M126,28.8c0,0,0,0.1,0,0.1c-4.9-4.2-11-9.4-20.4-15.3c0-0.1,0-0.1,0-0.2C110.2,16.4,118,21.4,126,28.8
				C126,28.8,126,28.8,126,28.8L126,28.8z"/>
			<path class="st2" d="M102.5,33.7c-0.2-0.1-0.2-0.1-0.4-0.2c2-5.3,4.7-12.5,1.9-19.9C104,13.5,108.3,19.4,102.5,33.7L102.5,33.7z"
				/>
			<path class="st2" d="M123.2,74.8c0-0.2,0-0.3,0-0.5c7.5-1.5,9.3-1.9,14.5-3.3c0,0.2,0,0.3,0.1,0.5
				C132.5,72.8,130.8,73.2,123.2,74.8L123.2,74.8z"/>
			<path class="st2" d="M120.2,72c-0.1,0-0.1,0.1-0.2,0.1c-4.5-11.2-7.5-18.6-17.3-34.2c0.1,0,0.2-0.1,0.3-0.2
				C109,47.3,114.9,57.2,120.2,72C120.2,72,120.2,72,120.2,72L120.2,72z"/>
			<path class="st2" d="M103.6,35.4c0-0.1-0.1-0.2-0.1-0.3c19.6-3.3,19.6-3.3,23.3-4.3c0.1,0.1,0.2,0.3,0.3,0.4
				C122.9,32.2,117.7,33.4,103.6,35.4L103.6,35.4z"/>
			<path class="st2" d="M122.4,72.5c-0.1-0.1-0.2-0.2-0.3-0.3c6.4-14.8,9.4-26,6.3-39.6C128.4,32.6,134.9,44.2,122.4,72.5
				L122.4,72.5z"/>
			<path class="st2" d="M88.4,146c0,0-0.1,0-0.1,0c2.8-3,6.5-7.1,7.3-18.3c0.2,0,0.2,0,0.3-0.1C95.4,132.8,94.5,140.5,88.4,146
				C88.4,146,88.4,146,88.4,146L88.4,146z"/>
			<path class="st2" d="M98,124.2c0-0.1-0.1-0.1-0.1-0.2c12.4-10.1,12.8-10.5,18.8-15.9c0,0.1,0.1,0.2,0.1,0.2
				C112.1,112.7,109,115.5,98,124.2L98,124.2z"/>
			<path class="st2" d="M116.3,134.6c-0.1,0.1-0.2,0.1-0.3,0.2c-1.6-1.7-3.9-4.2-18.5-8.5c0.1-0.1,0.1-0.2,0.2-0.3
				C103.3,127.7,113.7,130.9,116.3,134.6C116.3,134.6,116.3,134.6,116.3,134.6L116.3,134.6z"/>
			<path class="st2" d="M86.9,149.2c-0.1,0-0.2,0.1-0.4,0.1c0.3-0.2,0.9-0.4,1-0.7c0.2-0.6,0.2-0.6-0.3-1.3c0.1,0,0.2-0.1,0.3-0.1
				c0.2,0.3,0.6,0.6,0.5,1C87.9,148.6,87.9,148.7,86.9,149.2C87,149.2,86.9,149.2,86.9,149.2L86.9,149.2z"/>
			<path class="st2" d="M88.5,146.5c0.8-0.7,2.2-0.8,3.2-1.2c10.9-3.8,16.7-6.3,23.1-9.4C114.8,135.9,108.1,140,88.5,146.5
				L88.5,146.5z"/>
			<path class="st2" d="M118.6,133.4C118.6,133.4,118.6,133.4,118.6,133.4c5.6-5.3,7.9-7.4,13.4-14.9c0,0,0,0,0.1,0
				C127.6,124.5,125.6,127.2,118.6,133.4L118.6,133.4z"/>
			<path class="st2" d="M117.6,133.8c-0.1,0-0.2,0.1-0.2,0.2c4.3-7.2,5.9-13.3,2-25.4c0.2-0.1,0.2-0.1,0.3-0.3
				C122.6,118,123.2,125,117.6,133.8C117.6,133.7,117.6,133.8,117.6,133.8L117.6,133.8z"/>
			<path class="st2" d="M116.9,13l1.8,1.3c-0.8-0.6-1.7-1.2-2.5-1.8C116.4,12.6,116.6,12.8,116.9,13L116.9,13z"/>
			<path class="st2" d="M118.6,14.3c0.1,0.1,0.2,0.1,0.2,0.2C111.2,9.6,106.2,7,94.9,3.3c-0.1,0-0.2-0.1-0.3-0.1
				C105.1,6.6,110.2,8.9,118.6,14.3C118.6,14.3,118.6,14.3,118.6,14.3L118.6,14.3z"/>
			<path class="st2" d="M143.8,51.7c0,0.1,0,0.2,0,0.2c-3.5-6.3-5.8-10.4-14-19.2c0-0.1,0-0.2,0-0.2C135.5,38.8,139,42.8,143.8,51.7
				C143.8,51.6,143.8,51.7,143.8,51.7L143.8,51.7z"/>
			<path class="st2" d="M139.3,67.8c-0.1,0-0.1,0-0.2,0c-0.9-9-2-20.2-9.9-34.7c0.1,0,0.1,0,0.2,0C133.1,40.1,138.1,49.9,139.3,67.8
				L139.3,67.8z"/>
			<path class="st2" d="M120.6,104.4c-0.1-0.1-0.1-0.2-0.2-0.3c7.3-9.3,13.2-17.5,18-30.9c0.1,0.1,0.2,0.2,0.2,0.3
				C135.8,80.9,132.6,89.3,120.6,104.4L120.6,104.4z"/>
			<path class="st2" d="M135.3,113.8C135.3,113.8,135.3,113.8,135.3,113.8c3.6-6.3,5.5-9.5,8-16.2c0,0,0,0.1,0.1,0.1
				C140.9,103.9,139.5,107.3,135.3,113.8L135.3,113.8z"/>
			<path class="st2" d="M133.3,115.3c-0.1,0.1-0.1,0.2-0.2,0.3c-2.8-2.9-4.9-4.5-12.8-8.2c0.1-0.2,0.1-0.2,0.2-0.4
				C127.4,110.3,130.3,112,133.3,115.3C133.3,115.3,133.3,115.3,133.3,115.3L133.3,115.3z"/>
			<path class="st2" d="M120.8,105.9c0-0.2,0-0.3,0.1-0.4c10.1-3.5,16.3-6.1,22.5-10.1c0,0.1,0,0.2-0.1,0.4
				C139.3,98.5,135.1,101,120.8,105.9L120.8,105.9z"/>
			<path class="st2" d="M140.4,69.2c-0.1-0.2-0.1-0.2-0.2-0.4c2.7-5.5,3.6-7.3,4.5-13.2C144.7,55.6,145.7,58.9,140.4,69.2
				L140.4,69.2z"/>
			<path class="st2" d="M144.5,92.5c0,0.1-0.1,0.2-0.1,0.2c-0.4-5.5-0.8-10.7-4.1-19.3c0.1-0.1,0.1-0.2,0.2-0.3
				C142.4,78.9,144.3,84.4,144.5,92.5C144.5,92.5,144.5,92.5,144.5,92.5L144.5,92.5z"/>
			<path class="st2" d="M88.8,148.8c6.6-2,14.1-4.3,25.4-12.1C108.7,140.4,101.3,145.5,88.8,148.8L88.8,148.8z"/>
			<path class="st2" d="M123.6,132.6c-1.2,0.8-2,1.3-6.3,2.5c0.1-0.1,0.2-0.2,0.3-0.3c0.5-0.2,1.3-0.4,1.8-0.5
				c2.8-0.8,4.1-1.7,4.5-2C123.8,132.4,123.7,132.5,123.6,132.6L123.6,132.6z"/>
			<path class="st2" d="M103.7,144.9c5.1-2.4,8.8-4.3,12-8.6c0.1-0.1,0.2-0.2,0.4-0.2c-2.1,2.6-4,5.1-11.8,8.7
				C104,144.7,103.8,144.8,103.7,144.9L103.7,144.9z"/>
			<path class="st2" d="M123.6,18.1l-1.3-1.1c-0.1-0.1-0.2-0.1-0.2-0.2l1,0.8C123.3,17.8,123.5,18,123.6,18.1L123.6,18.1z"/>
			<path class="st2" d="M144.3,51.4c-1.4-1-1.3-3.8-1.8-5.4c-1.4-4.6-6.3-16.6-20-28.6C130.8,24.8,139.2,33.6,144.3,51.4L144.3,51.4
				z"/>
			<path class="st2" d="M143.9,45.5c1.2,3.7,1.2,4,1.3,7.3c-0.1-0.1-0.1-0.3-0.2-0.4c-0.2-0.8-0.1-2-0.1-2.8
				c-0.1-1.4-0.7-3.3-1.2-4.6C143.7,45.2,143.8,45.4,143.9,45.5L143.9,45.5z"/>
			<path class="st2" d="M87.1,1c1.6,0.3,4,0.7,5.5,1.5c-0.7-0.2-1.4-0.6-2.2-0.8c-0.8-0.2-1.9-0.5-3.8-0.8C86.7,1,86.9,1,87.1,1
				L87.1,1z"/>
			<path class="st2" d="M96.1,3.1C95.5,3,95,2.9,93.3,2.8c-0.1,0-0.3-0.1-0.4-0.1c1.6,0.1,2.2,0.2,2.8,0.3C95.8,3,96,3.1,96.1,3.1
				L96.1,3.1z"/>
			<path class="st2" d="M145.2,101.9c0.4-2.2,0.7-3.4-0.4-5.9c0.1-0.1,0.1-0.3,0.2-0.4c0.7,2.3,1.1,3.5,0.4,5.8
				C145.3,101.6,145.2,101.8,145.2,101.9L145.2,101.9z"/>
			<path class="st2" d="M81.6,150.4c2.2-0.2,3.6-0.4,4.5-0.9c0.1,0,0.3-0.1,0.4-0.1c-0.6,0.3-1.3,0.6-4.4,0.9
				C81.9,150.4,81.7,150.4,81.6,150.4L81.6,150.4z"/>
			<path class="st2" d="M98.4,146.9c-2.6,0.8-5,1.4-11.3,2.4c3.9-0.9,7.9-1.4,11.8-2.6C98.7,146.8,98.5,146.8,98.4,146.9L98.4,146.9
				z"/>
			<path class="st2" d="M145.2,92c2.4-13,3.1-20.3,0.3-35.2C147.9,68.6,148.4,76.8,145.2,92L145.2,92z"/>
			<path class="st2" d="M148,58c-0.9-1.8-0.9-1.8-2.2-3.1c0-0.2-0.1-0.3-0.1-0.5c1.7,1.8,1.8,1.8,2.2,3C147.9,57.7,148,57.9,148,58
				L148,58z"/>
			<path class="st2" d="M150,77.5c-0.7,6.7-1.1,8.5-4.5,15.6c0-0.1,0-0.2,0-0.4c0.3-1.2,1.3-2.7,1.8-3.8c0-0.1,2.4-5.3,2.7-12.1
				C150,77.1,150,77.3,150,77.5L150,77.5z"/>
			<path class="st2" d="M3.2,96.8c0.2,0.8,0.7,2.7,0.5,2.8c-0.4-0.1-2-5.5-1.7-5.7C2.3,94,2.7,95.1,3.2,96.8L3.2,96.8z"/>
			<path class="st2" d="M47.2,145.3c0.8,0.3,1.6,0.6,2.3,0.9c-0.3,0-5.1-1.9-5.4-2.2c0,0,0,0,0,0C44.1,144.1,44.1,144.1,47.2,145.3
				L47.2,145.3z"/>
			<path class="st2" d="M3.8,58.8C3.8,58.8,3.8,58.8,3.8,58.8C3.8,58.8,3.8,58.8,3.8,58.8C3.8,58.8,3.8,58.8,3.8,58.8
				C3.8,58.8,3.8,58.9,3.8,58.8C3.8,58.9,3.8,58.9,3.8,58.8C3.8,58.9,3.8,58.9,3.8,58.8C3.8,58.9,3.8,58.9,3.8,58.8
				c-0.6,2.6-1.2,3.2-1.5,2.8C1.8,60.8,3,56.1,3.7,56C3.9,56,4.3,56.3,3.8,58.8C3.8,58.8,3.8,58.8,3.8,58.8L3.8,58.8z"/>
			<path class="st2" d="M74.7,150.7c-1.6,0-2.8-0.1-2.8-0.1L74.7,150.7L74.7,150.7z"/>
			<path class="st2" d="M21.4,126.1c1.3,1.5,1.5,2.1,1.3,2.1c-0.7,0-4.3-3.9-3.8-4.2c0,0,0,0,0.1,0
				C19.3,123.9,20.3,124.8,21.4,126.1L21.4,126.1z"/>
			<path class="st2" d="M73.6,0c-1.2,0-1.9,0.1-3,0.1c0,0,1.6-0.1,4-0.1l0,0C74.3,0,74,0,73.6,0L73.6,0z"/>
			<path class="st2" d="M51.3,5.2c-1.8,0.8-2.8,1.2-3,1.1c0-0.4,4.1-2.1,4.8-2.1c0,0,0,0,0,0c0,0,0,0,0,0C53.2,4.3,53,4.4,51.3,5.2
				L51.3,5.2z"/>
			<path class="st2" d="M26.9,26.2c-1.6,2.2-3,2.6-3.1,1.9c-0.2-1,2.3-4,3.6-4C28.1,24.1,27.7,25.2,26.9,26.2L26.9,26.2z"/>
			<path class="st2" d="M48.6,142.5c1.5,1,1.3,1.2,1.2,1.2c-0.9,0.1-4.6-2.2-4.3-2.6c0,0,0.1,0,0.2-0.1
				C46.3,141.1,47.3,141.6,48.6,142.5L48.6,142.5z"/>
			<path class="st2" d="M29.9,62.8c-0.3,3-2.8,3.7-3.9,2.2c-1.1-1.5-0.3-5.1,2.1-5.2C29.1,59.8,30.1,60.8,29.9,62.8L29.9,62.8z"/>
			<path class="st2" d="M38.3,98.7c0.4,2.7-1.9,3.4-3.4,2.2c-1.8-1.4-1.9-4.8,0.3-5c0.1,0,0.2,0,0.2,0C37.3,96,38.1,97.4,38.3,98.7
				L38.3,98.7z"/>
			<path class="st2" d="M74.7,150.7c-0.6,0-1,0-1,0l0,0C74,150.7,74.3,150.7,74.7,150.7L74.7,150.7z"/>
			<path class="st2" d="M49.3,126.9c0.7,1.7-0.4,2.4-1.8,1.8c-1.7-0.7-3-3.3-1.6-3.9c0.3-0.1,0.5-0.1,0.6-0.1
				C47.9,124.7,48.9,125.9,49.3,126.9L49.3,126.9z"/>
			<path class="st2" d="M50.3,24.3c-1.1,2.1-3.4,2.3-3.8,1.2c-0.4-1,0.9-3.4,3-3.6C50.6,22,51,23,50.3,24.3L50.3,24.3z"/>
			<path class="st2" d="M65.8,4.5c-1.1,1.1-2.4,1.2-2.3,0.7c0-0.5,1.6-1.7,2.5-1.7C66.6,3.5,66.3,4.1,65.8,4.5L65.8,4.5z"/>
			<path class="st2" d="M72,149.9c0.5,0.3,0.5,0.3,0.5,0.4c-0.1,0.2-1.9-0.5-1.9-0.8c0-0.1,0-0.1,0.2-0.1
				C71.2,149.4,71.8,149.8,72,149.9L72,149.9z"/>
			<path class="st2" d="M74.3,71.9c0,3.1-3.7,3.8-5.3,2.2c-1.7-1.6-1-5.2,2.2-5.3C72.8,68.8,74.4,69.8,74.3,71.9L74.3,71.9z"/>
			<path class="st2" d="M75.7,135.9c-0.1,1.7-2.3,2.1-3.3,1c-0.8-0.9-0.6-2.8,1.4-2.8C74.8,134,75.8,134.6,75.7,135.9L75.7,135.9z"
				/>
			<path class="st2" d="M79.2,102.4c-0.1,2.9-3.6,3.4-5.1,1.8c-1.4-1.5-0.6-4.5,2.2-4.6C78.3,99.7,79.2,101,79.2,102.4L79.2,102.4z"
				/>
			<path class="st2" d="M83.4,17c0.2,1.8-1.9,2.1-3,1.1c-1.2-1-1-3,0.6-3.1c0.1,0,0.1,0,0.2,0C82.3,15.1,83.2,15.9,83.4,17L83.4,17z
				"/>
			<path class="st2" d="M97.9,125.7c-0.8,2.1-3.4,2.7-4,1.3c-0.5-1.1,0.5-3.5,2.8-3.5C98.2,123.5,98.3,124.7,97.9,125.7L97.9,125.7z
				"/>
			<path class="st2" d="M75.1,0c0.7,0,1.1,0.1,1.2,0.1c0,0,0,0-0.2,0c-0.2,0-0.5-0.1-0.7-0.1c-0.3,0-0.6,0-0.8,0l0,0
				C74.8,0,75,0,75.1,0L75.1,0z"/>
			<path class="st2" d="M74.7,150.7c0.4,0,0.8,0,1.2-0.1C75.8,150.7,75.3,150.7,74.7,150.7L74.7,150.7z"/>
			<path class="st2" d="M103.7,35.7c0.5,2.1-1.5,2.9-3.2,1.8c-1.6-1.1-2-3.9-0.2-4.4c0.2,0,0.4-0.1,0.5-0.1
				C102.2,33.1,103.4,34.2,103.7,35.7L103.7,35.7z"/>
			<path class="st2" d="M83.1,1.7c0.8,0.4,1.1,0.6,1,0.7c-0.1,0-0.3,0.1-1.3-0.3c0,0-1.7-0.7-1.7-0.9c0,0,0,0,0.1,0
				C81.4,1.2,82.3,1.4,83.1,1.7L83.1,1.7z"/>
			<path class="st2" d="M87.9,146.9c-1.1,0.7-2.5,1.1-2.4,0.7c0.1-0.4,2.2-1.7,3.1-1.7c0.5,0,0.1,0.3,0,0.4
				C88.5,146.6,88.3,146.7,87.9,146.9L87.9,146.9z"/>
			<path class="st2" d="M123.2,75.3c-0.1,1.6-1,2.7-2.3,2.8c0,0,0,0,0,0h0h0c0,0,0,0,0,0h0c0,0,0,0,0,0s0,0,0,0h0
				c-2.6-0.1-2.8-4.4-1.3-5.7c0.6-0.5,1.1-0.5,1.3-0.5C122.4,71.9,123.4,73.3,123.2,75.3L123.2,75.3z"/>
			<path class="st2" d="M120.7,106.5c-0.8,2.6-3.3,3.2-4,1.9c-0.7-1.4,0.6-4.6,2.7-4.6c0,0,0,0,0,0h0h0h0h0h0h0c0,0,0,0,0,0
				C120.7,103.8,121.2,104.9,120.7,106.5L120.7,106.5z"/>
			<path class="st2" d="M104.8,12.5c1,0.9,0.9,1.4,0.4,1.4c-1.2,0-4.2-2.5-3.7-3.1c0.1-0.1,0.2-0.1,0.3-0.1
				C102.7,10.8,104,11.6,104.8,12.5L104.8,12.5z"/>
			<path class="st2" d="M86.6,149.4c-1.4,0.3-2.6,0.5-2.7,0.5c0.1-0.1,4.7-1.1,4.9-1.1c0,0,0,0,0,0
				C88.8,148.9,87.7,149.2,86.6,149.4L86.6,149.4z"/>
			<path class="st2" d="M140.7,71.2c0,2.3-1.1,3.3-2,2.4c-1.3-1.2-1.4-5.7,0.4-5.8C140,67.8,140.7,69.2,140.7,71.2L140.7,71.2z"/>
			<path class="st2" d="M129.2,31c0.9,1.5,0.7,2.2,0,2c-1.4-0.3-3.9-4.1-3-4.6c0.1,0,0.1,0,0.2-0.1h0c0,0,0,0,0,0h0c0,0,0,0,0,0
				s0,0,0,0h0c0,0,0,0,0,0c0,0,0,0,0,0C127.1,28.4,128.3,29.5,129.2,31L129.2,31z"/>
			<path class="st2" d="M93,2.7c1.1,0.3,2,0.7,2.2,0.8c0,0,0,0,0,0c-0.4,0-5-1.5-5.2-1.6c0,0,0,0,0,0C90.3,2,91.6,2.3,93,2.7L93,2.7
				z"/>
			<path class="st2" d="M117,135.3c-1.5,1.2-2.8,1.8-2.8,1.5c0-0.5,3.3-3.3,4.3-3.4c0.3,0,0.1,0.5-0.7,1.3
				C117.5,134.9,117.2,135.1,117,135.3L117,135.3z"/>
			<path class="st2" d="M134.5,116.3c-1.2,1.9-2.4,2.8-2.6,2.1c-0.2-1,2.1-4.5,3.2-4.6C135.7,113.7,135.4,114.8,134.5,116.3
				L134.5,116.3z"/>
			<path class="st2" d="M145.1,95c-0.6,2.3-1.5,3.1-1.8,2.6c-0.5-0.9,0.6-5.5,1.7-5.6C145.6,92.1,145.6,93.3,145.1,95L145.1,95z"/>
			<path class="st2" d="M145.5,54.1c0.6,2,0.5,3,0,2.8c-1-0.6-2.3-5.4-1.5-5.6c0,0,0,0,0,0C144.5,51.3,145.1,52.5,145.5,54.1
				L145.5,54.1z"/>
			<path class="st2" d="M120.8,15.8c0.8,0.6,1.9,1.5,1.9,1.6c-0.2-0.1-4.5-3.4-4.6-3.5C118.3,14,119.5,14.8,120.8,15.8L120.8,15.8z"
				/>
		</g>
	</g>
</g>
</svg>
